<?xml version="1.0" encoding="utf-8"?>
<!-- Generator: Adobe Illustrator 16.0.0, SVG Export Plug-In . SVG Version: 6.00 Build 0)  -->
<!DOCTYPE svg PUBLIC "-//W3C//DTD SVG 1.1//EN" "http://www.w3.org/Graphics/SVG/1.1/DTD/svg11.dtd">
<svg version="1.1" id="Layer_1" xmlns="http://www.w3.org/2000/svg" xmlns:xlink="http://www.w3.org/1999/xlink" x="0px" y="0px"
	 width="137.925px" height="163.402px" viewBox="-317.001 38 137.925 163.402" enable-background="new -317.001 38 137.925 163.402"
	 xml:space="preserve">
<g>
	<path fill-rule="evenodd" clip-rule="evenodd" fill="#034EA1" d="M-247.498,123.32h-38.396c-0.812,3.655-0.992,5.995-0.996,6.047
		l-0.01,0.122c-0.64,7.356,2.996,21.241,15.471,27.187c12.144,5.788,19.539,10.382,23.93,13.572V123.32z"/>
	<g>
		<defs>
			<path id="SVGID_1_" d="M-247.498,123.32h-38.396c-0.812,3.655-0.992,5.995-0.996,6.047l-0.01,0.122
				c-0.64,7.356,2.996,21.241,15.471,27.187c12.144,5.788,19.539,10.382,23.93,13.572V123.32z"/>
		</defs>
		<clipPath id="SVGID_2_">
			<use xlink:href="#SVGID_1_"  overflow="visible"/>
		</clipPath>
		<g clip-path="url(#SVGID_2_)">
			<path fill-rule="evenodd" clip-rule="evenodd" fill="#FFFFFF" d="M-263.225,176.271c-1.398,0-2.758,0-4.113,0
				c0.131-0.717,0.271-1.427,0.388-2.142c0.07-0.424,0.134-0.854,0.148-1.282c0.058-1.833,0.114-3.667,0.129-5.501
				c0.007-1.028-0.062-2.06-0.126-3.086c-0.066-1.058-0.169-2.11-0.252-3.166c-0.069-0.86-0.12-1.719-0.203-2.58
				c-0.091-0.919-0.212-1.839-0.317-2.758c-0.091-0.8-0.17-1.603-0.269-2.405c-0.117-0.901-0.25-1.807-0.373-2.709
				c-0.077-0.559-0.15-1.118-0.228-1.697c2.108,0,4.169,0,6.289,0c-0.056,0.404-0.11,0.8-0.167,1.196
				c-0.099,0.713-0.204,1.423-0.299,2.136c-0.11,0.798-0.22,1.595-0.316,2.396c-0.079,0.651-0.137,1.306-0.208,1.957
				c-0.083,0.759-0.171,1.521-0.246,2.278c-0.056,0.558-0.101,1.119-0.144,1.679c-0.088,1.128-0.177,2.262-0.259,3.392
				c-0.03,0.434-0.059,0.866-0.064,1.299c-0.029,1.802-0.108,3.609-0.054,5.408C-263.853,172.555-263.728,174.428-263.225,176.271z"
				/>
			<path fill-rule="evenodd" clip-rule="evenodd" fill="#FFFFFF" d="M-270.515,130.291c1.17,0.867,2.42,1.698,3.36,2.957
				c0.486-0.938,0.795-1.891,0.938-2.883c0.142-0.99,0.203-1.992,0.3-2.985c0.924,0.842,1.692,1.818,2.271,2.935
				c0.57,1.103,1.109,2.221,1.708,3.337c-0.055-0.916-0.111-1.833-0.172-2.844c1.143,1.617,2.123,3.195,2.566,5.057
				c0.247,1.033,0.327,2.077,0.239,3.119c-0.126,1.526-0.673,2.917-1.641,4.121c-0.062,0.075-0.188,0.136-0.282,0.136
				c-2.794,0.008-5.591,0.01-8.386-0.002c-0.144-0.003-0.328-0.104-0.429-0.219c-1.014-1.17-1.426-2.541-1.245-4.068
				c0.131-1.119,0.593-2.135,1.284-3.011c0.384-0.486,0.406-1.006,0.312-1.525C-269.931,133.039-270.233,131.674-270.515,130.291z
				 M-260.913,135.474c-0.325,0.614-0.621,1.175-0.942,1.775c-0.948-2.326-1.854-4.603-3.06-6.688
				c-0.324,0.96-0.624,1.925-0.978,2.868c-0.317,0.84-0.895,1.485-1.666,1.972c-0.201-0.696-0.394-1.375-0.997-1.887
				c0.033,0.362,0.072,0.681,0.092,0.999c0.046,0.672,0.027,1.318-0.396,1.909c-0.329,0.46-0.631,0.952-0.866,1.467
				c-0.601,1.321-0.531,2.624,0.255,3.864c0.068,0.104,0.193,0.235,0.299,0.243c0.406,0.029,0.816,0.012,1.275,0.012
				c-0.485-0.833-0.574-1.697-0.538-2.594c0.029-0.699,0.512-2.146,0.808-2.388c0.06,0.46,0.124,0.944,0.186,1.429
				c0.032,0,0.067-0.001,0.099-0.001c0.611-1.369,1.131-2.788,2.091-4.044c0.136,1.182,0.339,2.27,0.962,3.146
				c0.467-0.485,0.93-0.966,1.393-1.447c-0.016,0.441-0.136,0.823-0.167,1.214c-0.042,0.551-0.106,1.099,0.308,1.601
				c0.456,0.551,0.663,1.229,0.583,1.955c-0.04,0.379-0.153,0.746-0.24,1.13c0.181,0,0.396,0.013,0.612-0.005
				c0.082-0.007,0.188-0.061,0.232-0.129c0.603-0.923,0.978-1.936,1.031-3.038c0.029-0.644-0.003-1.295-0.069-1.936
				C-260.653,136.429-260.801,135.97-260.913,135.474z"/>
			<path fill-rule="evenodd" clip-rule="evenodd" fill="#FFFFFF" d="M-272.082,145.614c4.545,0,9.033,0,13.602,0
				c-0.396,0.318-0.732,0.593-1.076,0.858c-0.818,0.63-1.635,1.257-2.46,1.88c-0.087,0.062-0.21,0.111-0.316,0.111
				c-1.979,0.008-3.96,0.022-5.938-0.015c-0.253-0.005-0.523-0.253-0.755-0.428c-0.97-0.734-1.927-1.481-2.888-2.228
				C-271.964,145.754-272.001,145.704-272.082,145.614z"/>
			<path fill-rule="evenodd" clip-rule="evenodd" fill="#FFFFFF" d="M-265.289,145.142c-2.535,0-5.065,0-7.598-0.003
				c-0.463,0-0.628-0.16-0.633-0.61c-0.004-0.627,0.146-0.822,0.646-0.822c5.053,0,10.109,0,15.164,0
				c0.458,0,0.64,0.227,0.638,0.769c-0.005,0.499-0.157,0.664-0.618,0.664C-260.223,145.142-262.756,145.142-265.289,145.142z"/>
			<path fill-rule="evenodd" clip-rule="evenodd" fill="#FFFFFF" d="M-265.328,179.347c-0.729,0-1.457,0-2.186,0
				c-0.404-0.002-0.585-0.185-0.586-0.593c-0.002-0.467-0.002-0.937,0-1.401c0.001-0.418,0.164-0.607,0.575-0.61
				c1.488-0.007,2.978-0.007,4.465,0c0.336,0,0.561,0.231,0.567,0.572c0.01,0.488,0.01,0.978-0.002,1.466
				c-0.007,0.396-0.191,0.564-0.585,0.566C-263.828,179.347-264.577,179.347-265.328,179.347z"/>
			<path fill-rule="evenodd" clip-rule="evenodd" fill="#FFFFFF" d="M-265.296,179.807c0.51,0,1.021,0.008,1.531-0.002
				c0.293-0.008,0.369,0.139,0.366,0.4c-0.002,0.253-0.081,0.385-0.352,0.385c-1.032-0.005-2.063-0.008-3.097,0
				c-0.29,0.002-0.342-0.17-0.336-0.398c0.002-0.231,0.076-0.392,0.356-0.387C-266.318,179.815-265.805,179.807-265.296,179.807z"/>
		</g>
	</g>
	<path fill-rule="evenodd" clip-rule="evenodd" fill="#981F23" d="M-284.301,117.489c-0.699,2.162-1.212,4.135-1.593,5.831h38.396
		V76.389h-0.002c-4.992,3.398-10.634,5.118-16.806,5.118c-6.798,0-12.913-2.101-17.481-4.326l-4.477,6.747
		C-281.01,95.578-282.298,111.274-284.301,117.489z"/>
	<path fill-rule="evenodd" clip-rule="evenodd" fill="#034EA1" d="M-247.498,123.32h38.403c-0.377-1.695-0.893-3.67-1.588-5.831
		c-2.006-6.215-3.295-21.912,1.958-33.562l-4.478-6.748c-4.566,2.225-10.681,4.326-17.479,4.327c-6.183,0-11.825-1.719-16.816-5.116
		V123.32z"/>
	<path fill-rule="evenodd" clip-rule="evenodd" fill="#981F23" d="M-208.099,129.349c-0.003-0.034-0.181-2.373-0.995-6.029h-38.403
		v46.931c4.391-3.19,11.786-7.787,23.939-13.575c12.475-5.945,16.108-19.83,15.466-27.229L-208.099,129.349z"/>
	<path fill-rule="evenodd" clip-rule="evenodd" fill="#EEA523" d="M-203.949,115.315c-1.709-5.303-3.005-22.217,3.487-31.739
		l-10.529-15.869c0,0-20.294,15.108-35.965,0.022c0,0-0.389-0.368-0.542-0.743c-0.153,0.375-0.541,0.743-0.541,0.743
		c-15.663,15.086-35.957-0.022-35.957-0.022l-10.531,15.869c6.491,9.521,5.198,26.436,3.487,31.739
		c-2.558,7.934-2.911,13.561-2.911,13.561c-0.864,9.953,4.055,26.839,19.477,34.19c21.453,10.223,26.976,16.358,26.976,16.358
		s5.524-6.136,26.983-16.358c15.421-7.352,20.343-24.237,19.477-34.19C-201.038,128.876-201.387,123.25-203.949,115.315z
		 M-222.037,159.872c-14.527,6.921-21.974,12.029-25.461,14.824c-3.487-2.795-10.931-7.903-25.454-14.824
		c-14.089-6.715-18.194-22.388-17.471-30.688l0.004-0.088c0.004-0.045,0.376-5.342,2.747-12.693
		c1.757-5.443,3.21-21.847-2.668-32.736l7.374-11.111c3.843,2.199,10.798,5.413,18.659,5.412c6.285,0,11.928-2.013,16.809-5.991
		c4.866,3.973,10.517,5.991,16.816,5.991l0,0c7.859-0.001,14.817-3.213,18.659-5.413l7.373,11.112
		c-5.878,10.889-4.423,27.292-2.668,32.736c2.374,7.351,2.743,12.648,2.746,12.701l0.007,0.08
		C-203.842,137.484-207.946,153.157-222.037,159.872z"/>
	<g>
		<path fill="#A6A8AB" d="M-247.498,171.388l-0.541-0.394c-3.924-2.851-11.236-7.505-23.788-13.487
			c-12.895-6.146-16.65-20.495-15.989-28.099l0.009-0.114c0.003-0.046,0.395-5.166,2.626-12.088
			c1.88-5.822,3.243-21.447-1.922-32.899l-0.21-0.464l5.207-7.845l0.725,0.354c5.766,2.81,11.512,4.232,17.076,4.232
			c5.973,0,11.453-1.667,16.289-4.957l0.52-0.353l0.516,0.353c4.833,3.29,10.314,4.957,16.301,4.957
			c5.563,0,11.311-1.424,17.076-4.232l0.727-0.354l5.207,7.845l-0.212,0.464c-5.165,11.452-3.803,27.077-1.923,32.899
			c2.229,6.919,2.621,12.032,2.626,12.083l0.007,0.091c0.662,7.607-3.093,21.982-15.989,28.128
			c-12.558,5.982-19.867,10.637-23.793,13.487L-247.498,171.388z M-285.218,84.017c4.954,11.454,4.022,26.845,1.791,33.756
			c-2.158,6.692-2.539,11.611-2.542,11.66l-0.01,0.128c-0.619,7.118,2.892,20.537,14.946,26.283
			c9.865,4.7,17.777,9.163,23.535,13.268c5.759-4.104,13.672-8.567,23.543-13.268c12.054-5.746,15.563-19.192,14.943-26.317
			l-0.008-0.109c-0.005-0.051-0.379-4.947-2.541-11.645c-2.229-6.912-3.164-22.302,1.79-33.756l-3.755-5.66
			c-5.778,2.703-11.546,4.071-17.156,4.072c-6.15,0-11.801-1.659-16.819-4.931c-5.018,3.272-10.67,4.931-16.806,4.931
			c-5.611,0.001-11.379-1.369-17.156-4.072L-285.218,84.017z"/>
	</g>
	<g>
		<path fill="#EEA523" d="M-225.074,188.42c2.823,1.863,8.473,1.447,11.826-0.826c3.354-2.276,9.003-4.961,12.181-4.961
			c3.176,0,5.297,3.101,5.297,3.101s-2.121-0.416-5.121,1.86c0,0,5.121,4.961,5.121,8.891c0,0-2.121-3.104-5.297-3.104
			c-3.178,0-8.827,2.688-12.181,4.964c-3.354,2.273-9.003,2.687-11.826,0.826V188.42z"/>
		<path fill="#981F23" d="M-225.074,199.171c0,0-0.53-5.428,6.002-5.479c7.59-0.061,9.178-0.516,9.003-2.792v-9.097l-16.327,2.482
			L-225.074,199.171z"/>
		<path fill="#EEA523" d="M-269.915,188.42c-2.822,1.863-8.471,1.447-11.826-0.826c-3.354-2.276-9.001-4.961-12.178-4.961
			c-3.179,0-5.295,3.101-5.295,3.101s2.117-0.416,5.118,1.86c0,0-5.118,4.961-5.118,8.891c0,0,2.117-3.104,5.295-3.104
			c3.177,0,8.825,2.688,12.178,4.964c3.355,2.273,9.004,2.687,11.826,0.826V188.42z"/>
		<path fill="#981F23" d="M-269.915,199.171c0,0,0.707-5.686-6-5.479c-7.589,0.233-9.18-0.516-9.002-2.792v-9.097l16.326,2.482
			L-269.915,199.171z"/>
		<path fill="#EEA523" d="M-225.604,178.913c-9.006,4.132-17.304,3.514-21.892,3.514c-4.59,0-12.885,0.618-21.889-3.514
			c-9.001-4.137-14.297-3.101-15.532,0.206v11.782c1.235-3.307,6.531-4.341,15.532-0.206c9.003,4.136,17.298,3.516,21.889,3.516
			c4.588,0,12.886,0.62,21.892-3.516c9.003-4.135,14.297-3.101,15.535,0.206v-11.782
			C-211.307,175.812-216.601,174.776-225.604,178.913z"/>
	</g>
	<g>
		<path fill-rule="evenodd" clip-rule="evenodd" fill="#FFFFFF" d="M-232.326,144.261c-0.056-0.15-0.119-0.274-0.15-0.403
			c-0.085-0.338-0.166-0.677-0.229-1.02c-0.026-0.134-0.002-0.274-0.002-0.413c-0.003-0.129-0.015-0.258-0.01-0.387
			c0.005-0.17-0.036-0.355,0.1-0.503c0.027-0.027,0.039-0.073,0.042-0.112c0.007-0.136,0.015-0.274,0.007-0.413
			c-0.005-0.097-0.036-0.168-0.17-0.194c-0.122-0.024-0.229-0.129-0.344-0.189c-0.059-0.031-0.122-0.061-0.183-0.073
			c-0.19-0.029-0.383-0.054-0.575-0.068c-0.054-0.005-0.119,0.022-0.163,0.054c-0.078,0.059-0.334,0.104-0.427,0.07
			c-0.029-0.01-0.072-0.002-0.1,0.008c-0.106,0.041-0.207,0.085-0.312,0.131c-0.039,0.02-0.07,0.044-0.109,0.068
			c-0.027,0.018-0.066,0.056-0.088,0.051c-0.104-0.028-0.126,0.044-0.158,0.109c-0.024,0.049-0.05,0.096-0.083,0.139
			c-0.016,0.02-0.056,0.042-0.07,0.034c-0.084-0.044-0.119,0.015-0.173,0.062c-0.174,0.154-0.39,0.174-0.613,0.162
			c-0.058-0.003-0.119,0.012-0.174,0.034c-0.121,0.046-0.229,0.038-0.299-0.047c-0.066-0.085-0.058-0.172,0.006-0.267
			c0.069-0.109,0.122-0.227,0.188-0.336c0.02-0.034,0.07-0.08,0.091-0.072c0.093,0.034,0.128-0.034,0.188-0.073
			c0.184-0.127,0.386-0.178,0.608-0.127c0.034,0.008,0.085,0.02,0.101,0.003c0.113-0.109,0.188,0.007,0.277,0.041
			c0.015,0.005,0.029,0.032,0.035,0.052c0.046,0.109,0.123,0.139,0.218,0.07c0.174-0.119,0.337-0.248,0.51-0.367
			c0.039-0.027,0.09-0.038,0.137-0.055c0.229-0.079,0.465-0.122,0.704-0.139c0.031-0.002,0.061,0.01,0.124,0.02
			c-0.063-0.145-0.115-0.273-0.181-0.395c-0.153-0.287-0.324-0.568-0.471-0.86c-0.072-0.146-0.126-0.312-0.148-0.474
			c-0.031-0.232-0.136-0.396-0.331-0.517c-0.178-0.108-0.357-0.198-0.562-0.231c-0.062-0.011-0.129,0-0.193,0.009
			c-0.15,0.02-0.301,0.049-0.451,0.07c-0.026,0.003-0.059-0.016-0.083-0.024c0.012-0.031,0.014-0.079,0.04-0.094
			c0.067-0.041,0.139-0.086,0.215-0.101c0.208-0.041,0.42-0.091,0.63-0.089c0.148,0.003,0.298,0.083,0.443,0.129
			c0.039,0.011,0.095,0.039,0.117,0.023c0.023-0.018,0.029-0.076,0.032-0.117c0.021-0.24-0.037-0.474-0.094-0.706
			c-0.007-0.03-0.021-0.06-0.039-0.1c-0.216,0.323-0.535,0.3-0.845,0.249c-0.345-0.059-0.516-0.315-0.61-0.629
			c-0.024-0.079,0.008-0.126,0.08-0.166c0.49-0.274,1.088-0.014,1.285,0.388c0.008,0.013,0.018,0.021,0.034,0.04
			c0.065-0.082,0.124-0.051,0.163,0.021c0.078,0.153,0.168,0.307,0.217,0.47c0.066,0.23,0.08,0.474,0.144,0.702
			c0.074,0.266,0.156,0.53,0.275,0.777c0.166,0.352,0.368,0.684,0.556,1.023c0.015,0.024,0.029,0.055,0.054,0.067
			c0.28,0.145,0.424,0.441,0.685,0.607c0.07,0.044,0.103,0.144,0.165,0.233c0.024-0.059,0.039-0.095,0.052-0.131
			c0.013-0.033,0.01-0.078,0.032-0.103c0.216-0.241,0.177-0.565,0.27-0.846c0.047-0.137,0.062-0.285,0.081-0.43
			c0.034-0.248-0.02-0.461-0.259-0.596c-0.061-0.034-0.111-0.08-0.161-0.129c-0.02-0.021-0.026-0.06-0.036-0.093
			c0.031-0.007,0.071-0.03,0.096-0.019c0.134,0.065,0.268,0.131,0.395,0.209c0.136,0.082,0.185,0.067,0.189-0.089
			c0.005-0.451,0.007-0.902-0.005-1.353c-0.005-0.126-0.049-0.258-0.1-0.375c-0.259-0.592-0.604-1.128-1.097-1.542
			c-0.318-0.271-0.558-0.601-0.836-0.902c-0.136-0.148-0.291-0.197-0.481-0.164c-0.278,0.049-0.546,0.035-0.816-0.063
			c-0.342-0.123-0.691-0.209-1.063-0.192c-0.312,0.015-0.544,0.169-0.739,0.404c-0.184,0.223-0.263,0.479-0.295,0.759
			c-0.005,0.044-0.011,0.09-0.03,0.126c-0.055,0.092-0.005,0.129,0.07,0.161c0.012,0.006,0.025,0.012,0.041,0.017
			c0.442,0.134,0.568,0.481,0.569,0.874c0.002,0.271-0.056,0.525-0.164,0.773c-0.062,0.141-0.13,0.169-0.261,0.081
			c-0.358-0.238-0.596-0.569-0.707-0.985c-0.059-0.218,0.045-0.405,0.155-0.583c0.008-0.011,0.019-0.022,0.029-0.031
			c0.125-0.113,0.168-0.233,0.143-0.417c-0.025-0.174,0.027-0.366,0.075-0.541c0.039-0.142,0.109-0.277,0.185-0.405
			c0.054-0.086,0.143-0.149,0.214-0.226c0.023-0.026,0.038-0.059,0.058-0.087c-0.032-0.017-0.06-0.044-0.09-0.047
			c-0.084-0.009-0.167-0.007-0.25-0.009c-0.166-0.005-0.336,0.002-0.498-0.021c-0.332-0.051-0.661-0.105-0.996-0.051
			c-0.013,0-0.029,0.004-0.045,0.002c-0.056-0.01-0.161-0.015-0.161-0.034c-0.015-0.09,0.077-0.069,0.127-0.089
			c0.089-0.035,0.177-0.069,0.267-0.098c0.18-0.056,0.36-0.02,0.541,0.005c0.175,0.022,0.353,0.047,0.524-0.026
			c0.024-0.009,0.051-0.008,0.077-0.008c0.311-0.013,0.623-0.021,0.937-0.037c0.263-0.016,0.509,0.051,0.759,0.12
			c0.368,0.103,0.748,0.147,1.132,0.117c0.139-0.012,0.185-0.082,0.165-0.219c-0.046-0.329-0.112-0.649-0.236-0.959
			c-0.095-0.234-0.243-0.425-0.399-0.621c-0.222-0.284-0.509-0.493-0.8-0.7c-0.105-0.076-0.202-0.168-0.3-0.258
			c-0.019-0.02-0.018-0.062-0.026-0.095c0.031,0.001,0.064-0.008,0.091,0.004c0.345,0.176,0.698,0.342,1.035,0.534
			c0.151,0.091,0.275,0.234,0.404,0.36c0.362,0.36,0.565,0.813,0.747,1.28c0.01,0.035,0.032,0.067,0.05,0.1
			c0.01-0.001,0.02-0.002,0.029-0.004c0.002-0.032,0.005-0.066,0.007-0.1c0.013-0.518,0.192-0.975,0.514-1.374
			c0.236-0.294,0.5-0.565,0.751-0.847c0.033-0.038,0.062-0.077,0.109-0.134c-0.181,0.032-0.305-0.028-0.393-0.159
			c-0.083-0.118-0.183-0.235-0.229-0.367c-0.215-0.608-0.031-1.141,0.349-1.625c0.058-0.07,0.129-0.07,0.189-0.007
			c0.144,0.157,0.277,0.324,0.344,0.534c0.048,0.156,0.112,0.311,0.134,0.469c0.034,0.273,0.005,0.543-0.137,0.79
			c-0.015,0.025-0.021,0.053-0.034,0.082c-0.002,0.001,0.003,0.006,0.008,0.032c0.061-0.054,0.127-0.092,0.168-0.148
			c0.219-0.289,0.434-0.582,0.644-0.88c0.017-0.025,0.002-0.088-0.018-0.123c-0.051-0.1-0.129-0.186-0.175-0.288
			c-0.144-0.307-0.139-0.616,0.004-0.924c0.249-0.523,0.652-0.883,1.168-1.126c0.109-0.054,0.168-0.03,0.215,0.086
			c0.126,0.327,0.189,0.671,0.157,1.024c-0.02,0.186-0.061,0.37-0.102,0.554c-0.104,0.46-0.55,0.757-0.971,0.77
			c-0.095,0.003-0.163,0.043-0.204,0.146c-0.049,0.131-0.127,0.253-0.19,0.379c-0.029,0.058-0.054,0.117-0.056,0.193
			c0.056-0.052,0.119-0.096,0.168-0.153c0.117-0.137,0.272-0.206,0.434-0.255c0.467-0.147,0.916-0.083,1.35,0.136
			c0.082,0.042,0.09,0.095,0.041,0.168c-0.265,0.41-0.642,0.666-1.118,0.76c-0.326,0.063-0.635-0.002-0.908-0.205
			c-0.078-0.059-0.126-0.123-0.075-0.223c0.01-0.02,0.007-0.045-0.008-0.078c-0.043,0.048-0.09,0.096-0.132,0.147
			c-0.277,0.341-0.574,0.669-0.828,1.025c-0.212,0.296-0.399,0.617-0.548,0.949c-0.127,0.283-0.117,0.605-0.088,0.913
			c0.022,0.257,0.056,0.514,0.117,0.763c0.078,0.319,0.295,0.555,0.533,0.767c0.218,0.196,0.446,0.375,0.65,0.579
			c0.278,0.273,0.487,0.596,0.678,0.934c0.021,0.035,0.046,0.068,0.085,0.126c0.024-0.062,0.046-0.099,0.056-0.138
			c0.104-0.337,0.215-0.673,0.419-0.964c0.121-0.182,0.08-0.379,0.09-0.569c0.007-0.165-0.013-0.325-0.088-0.478
			c-0.039-0.074-0.044-0.167-0.059-0.252c-0.002-0.02,0.018-0.061,0.027-0.062c0.026-0.001,0.061,0.01,0.075,0.029
			c0.103,0.161,0.209,0.32,0.302,0.486c0.068,0.123,0.119,0.145,0.224,0.048c0.189-0.18,0.369-0.368,0.562-0.549
			c0.103-0.096,0.214-0.184,0.326-0.269c0.211-0.155,0.313-0.382,0.382-0.62c0.068-0.239,0.109-0.487,0.158-0.733
			c0.012-0.062,0.002-0.129,0.002-0.22c-0.141,0.194-0.326,0.154-0.501,0.136c-0.192-0.02-0.34-0.12-0.477-0.248
			c-0.289-0.271-0.374-0.617-0.372-0.997c0-0.096,0.056-0.149,0.163-0.149c0.297,0.004,0.564,0.103,0.81,0.277
			c0.212,0.154,0.316,0.368,0.36,0.62c0.007,0,0.02,0,0.029,0c0.01-0.084,0.021-0.168,0.028-0.25
			c0.042-0.431,0.096-0.858,0.21-1.277c0.017-0.056,0.02-0.115,0.038-0.169c0.01-0.026,0.044-0.046,0.066-0.067
			c0.015,0.025,0.041,0.052,0.039,0.076c-0.015,0.195-0.034,0.389-0.054,0.584c-0.01,0.095-0.015,0.188-0.022,0.281
			c-0.036,0.444-0.029,0.887,0.008,1.328c0.012,0.134,0.044,0.266,0.051,0.399c0.005,0.147,0,0.296-0.02,0.444
			c-0.015,0.125,0.02,0.182,0.139,0.149c0.312-0.074,0.625-0.135,0.927-0.241c0.277-0.101,0.555-0.227,0.798-0.392
			c0.374-0.252,0.64-0.599,0.795-1.034c0.153-0.417,0.165-0.843,0.126-1.276c-0.021-0.237-0.021-0.229-0.267-0.291
			c-0.341-0.086-0.589-0.296-0.696-0.638c-0.158-0.507-0.139-1.011,0.059-1.506c0.039-0.097,0.1-0.126,0.209-0.071
			c0.142,0.069,0.28,0.148,0.399,0.244c0.323,0.257,0.583,0.566,0.707,0.969c0.095,0.305,0.02,0.579-0.165,0.821
			c-0.088,0.115-0.134,0.218-0.095,0.366c0.109,0.392,0.104,0.792,0.078,1.191c-0.022,0.275-0.132,0.535-0.261,0.78
			c-0.222,0.421-0.521,0.777-0.893,1.071c-0.333,0.266-0.705,0.446-1.136,0.481c-0.625,0.051-1.108,0.353-1.508,0.821
			c-0.367,0.432-0.705,0.886-0.997,1.374c-0.243,0.402-0.389,0.841-0.459,1.307c-0.049,0.354-0.093,0.711-0.142,1.066
			c-0.031,0.271-0.051,0.542-0.102,0.81c-0.044,0.237-0.117,0.471-0.178,0.705c-0.034,0.118-0.073,0.236-0.107,0.355
			c-0.005,0.016-0.015,0.04-0.01,0.052c0.068,0.111,0.024,0.213-0.023,0.315c-0.01,0.021,0,0.061-0.015,0.071
			c-0.178,0.136-0.117,0.357-0.195,0.527c-0.024,0.051,0,0.129,0.015,0.189c0.024,0.093,0.02,0.171-0.032,0.258
			c-0.106,0.187-0.08,0.379,0.005,0.571c0.057,0.124,0.103,0.253,0.018,0.389c-0.02,0.029-0.024,0.076-0.02,0.114
			c0.054,0.453,0.104,0.91,0.248,1.348c0.117,0.341,0.316,0.637,0.56,0.899c0.065,0.071,0.103,0.015,0.122-0.044
			c0.07-0.185,0.129-0.372,0.204-0.554c0.224-0.553,0.459-1.102,0.684-1.659c0.116-0.294,0.279-0.559,0.457-0.819
			c0.077-0.116,0.17-0.226,0.265-0.33c0.217-0.24,0.204-0.596,0.1-0.829c-0.024-0.052-0.075-0.098-0.124-0.132
			c-0.095-0.063-0.199-0.108-0.292-0.178c-0.041-0.03-0.051-0.099-0.08-0.15c0.047-0.016,0.09-0.052,0.132-0.047
			c0.229,0.027,0.439,0.091,0.581,0.296c0.012,0.021,0.029,0.046,0.051,0.054c0.124,0.047,0.168,0.155,0.209,0.284
			c0.049-0.059,0.088-0.107,0.129-0.156c0.119-0.146,0.268-0.255,0.436-0.342c0.07-0.037,0.124-0.099,0.18-0.154
			c0.151-0.148,0.295-0.303,0.445-0.45c0.183-0.178,0.292-0.387,0.284-0.647c0-0.166,0.008-0.333,0-0.501
			c-0.005-0.188-0.08-0.348-0.196-0.494c-0.246-0.316-0.486-0.634-0.723-0.956c-0.063-0.083-0.1-0.186-0.144-0.278
			c0.01-0.011,0.02-0.02,0.032-0.029c0.038,0.024,0.077,0.044,0.111,0.073c0.217,0.192,0.428,0.39,0.649,0.576
			c0.095,0.079,0.204,0.141,0.312,0.199c0.119,0.064,0.163,0.05,0.229-0.071c0.046-0.089,0.085-0.186,0.124-0.278
			c0.106-0.237,0.287-0.414,0.488-0.56c0.241-0.174,0.494-0.333,0.749-0.484c0.214-0.125,0.382-0.294,0.504-0.499
			c0.139-0.225,0.067-0.459,0.012-0.688c-0.007-0.024-0.029-0.05-0.024-0.072c0.01-0.046,0.027-0.09,0.044-0.135
			c0.032,0.022,0.075,0.035,0.098,0.065c0.178,0.225,0.219,0.49,0.226,0.767c0.003,0.029,0.008,0.064,0.024,0.087
			c0.008,0.009,0.057,0,0.075-0.016c0.168-0.141,0.346-0.269,0.491-0.429c0.225-0.252,0.436-0.517,0.63-0.791
			c0.297-0.412,0.597-0.816,1.024-1.104c0.068-0.046,0.141-0.09,0.211-0.128c0.029-0.016,0.068-0.01,0.112,0.01
			c-0.063,0.062-0.119,0.13-0.185,0.184c-0.272,0.212-0.467,0.482-0.649,0.771c-0.1,0.159-0.222,0.305-0.326,0.462
			c-0.165,0.249-0.34,0.497-0.491,0.756c-0.199,0.336-0.488,0.578-0.793,0.802c-0.345,0.255-0.695,0.498-1.045,0.745
			c-0.339,0.234-0.589,0.538-0.732,0.925c-0.078,0.213-0.148,0.432-0.212,0.649c-0.061,0.201-0.034,0.404,0.01,0.604
			c0.02,0.099,0.063,0.117,0.156,0.068c0.144-0.077,0.289-0.154,0.433-0.231c0.214-0.115,0.45-0.159,0.686-0.194
			c0.241-0.035,0.486-0.046,0.723-0.096c0.188-0.04,0.372-0.119,0.491-0.285c0.087-0.122,0.153-0.26,0.233-0.389
			c0.017-0.027,0.051-0.043,0.075-0.061c0.017,0.026,0.051,0.062,0.049,0.084c-0.032,0.129-0.073,0.255-0.117,0.381
			c-0.031,0.086-0.077,0.165-0.114,0.247c-0.041,0.102,0,0.154,0.109,0.142c0.081-0.009,0.158-0.022,0.238-0.04
			c0.132-0.032,0.263-0.082,0.399-0.103c0.413-0.068,0.674-0.357,0.94-0.644c0.272-0.29,0.535-0.595,0.84-0.85
			c0.204-0.173,0.464-0.278,0.707-0.4c0.132-0.062,0.277-0.097,0.421-0.137c0.054-0.015,0.112-0.01,0.202-0.015
			c-0.029,0.042-0.039,0.071-0.059,0.08c-0.141,0.069-0.292,0.124-0.428,0.205c-0.243,0.143-0.484,0.291-0.713,0.454
			c-0.085,0.061-0.15,0.16-0.197,0.256c-0.187,0.389-0.483,0.678-0.819,0.932c-0.224,0.168-0.445,0.336-0.676,0.496
			c-0.243,0.168-0.525,0.227-0.814,0.253c-0.341,0.032-0.688,0.032-1.029,0.078c-0.255,0.032-0.501,0.12-0.749,0.183
			c-0.306,0.072-0.578,0.226-0.851,0.378c-0.042,0.023-0.093,0.057-0.109,0.097c-0.044,0.118-0.146,0.16-0.236,0.225
			c-0.095,0.066-0.18,0.147-0.27,0.224c-0.022,0.017-0.044,0.041-0.068,0.05c-0.199,0.059-0.313,0.236-0.47,0.353
			c-0.092,0.066-0.172,0.148-0.26,0.22c-0.07,0.053-0.114,0.111-0.148,0.199c-0.044,0.097-0.144,0.17-0.217,0.252
			c-0.062,0.068-0.131,0.132-0.187,0.202c-0.059,0.075-0.112,0.155-0.158,0.238c-0.027,0.049-0.034,0.104-0.051,0.158
			c-0.034,0.121-0.052,0.248-0.181,0.318s-0.141,0.216-0.185,0.331c-0.168,0.433-0.25,0.887-0.313,1.345
			c-0.024,0.167-0.063,0.335-0.098,0.503c-0.007,0.039-0.024,0.083-0.021,0.127c0.005,0.058,0.021,0.114,0.036,0.172
			c0.049-0.021,0.109-0.033,0.148-0.067c0.202-0.171,0.442-0.246,0.693-0.292c0.353-0.065,0.702-0.112,1.055-0.166
			c0.168-0.026,0.331-0.053,0.453-0.201c0.048-0.061,0.134-0.1,0.209-0.129c0.188-0.07,0.312-0.209,0.387-0.38
			c0.136-0.309,0.258-0.622,0.372-0.94c0.059-0.156,0.077-0.324,0.121-0.484c0.01-0.036,0.049-0.068,0.073-0.102
			c0.029,0.036,0.073,0.072,0.075,0.111c0.013,0.075,0,0.153-0.012,0.229c-0.078,0.45-0.161,0.897-0.243,1.348
			c-0.018,0.087,0.015,0.106,0.092,0.087c0.222-0.053,0.443-0.106,0.664-0.167c0.287-0.083,0.581-0.158,0.861-0.266
			c0.364-0.139,0.656-0.392,0.953-0.642c0.092-0.078,0.206-0.134,0.307-0.207c0.053-0.036,0.1-0.083,0.17-0.146
			c-0.313,0.012-0.494-0.114-0.601-0.385c-0.103-0.265-0.119-0.535-0.056-0.812c0.019-0.1,0.038-0.199,0.061-0.299
			c0.051-0.194,0.16-0.355,0.313-0.481c0.046-0.04,0.148-0.062,0.197-0.039c0.061,0.029,0.102,0.111,0.136,0.178
			c0.032,0.061,0.037,0.141,0.07,0.201c0.229,0.395,0.316,0.8,0.103,1.232c-0.017,0.037-0.015,0.085-0.024,0.127
			c-0.01,0.036-0.024,0.072-0.049,0.139c0.192-0.103,0.357-0.192,0.521-0.282c0.046-0.024,0.085-0.065,0.134-0.075
			c0.227-0.049,0.355-0.246,0.535-0.36c0.036-0.024,0.051-0.078,0.08-0.116c0.088-0.102,0.173-0.209,0.268-0.304
			c0.029-0.031,0.09-0.026,0.137-0.044c0.048-0.02,0.104-0.031,0.138-0.065c0.234-0.217,0.465-0.438,0.696-0.656
			c0.007-0.007,0.015-0.019,0.024-0.02c0.191-0.04,0.32-0.18,0.464-0.295c0.02-0.015,0.051-0.018,0.09-0.029
			c-0.002,0.044,0.005,0.079-0.007,0.097c-0.095,0.139-0.178,0.285-0.289,0.404c-0.205,0.231-0.434,0.443-0.643,0.667
			c-0.178,0.189-0.341,0.388-0.513,0.578c-0.066,0.07-0.148,0.124-0.214,0.204c0.023-0.01,0.048-0.018,0.072-0.029
			c0.078-0.044,0.151-0.093,0.219,0.017c0.01,0.015,0.047,0.018,0.071,0.02c0.109,0.008,0.219,0.018,0.328,0.027
			c0.031,0,0.072,0.017,0.097,0.005c0.144-0.063,0.258,0.02,0.365,0.08c0.116,0.061,0.212,0.16,0.312,0.248
			c0.024,0.02,0.046,0.051,0.046,0.083c0,0.114,0.078,0.187,0.129,0.279c0.088,0.153,0.155,0.318,0.224,0.481
			c0.031,0.075-0.02,0.119-0.093,0.141c-0.185,0.054-0.369,0.071-0.562,0.039c-0.312-0.051-0.612-0.129-0.86-0.335
			c-0.142-0.119-0.287-0.246-0.339-0.443c0-0.007-0.002-0.012-0.007-0.02c-0.046-0.08-0.109-0.155-0.131-0.243
			c-0.022-0.087-0.005-0.185-0.005-0.289c-0.039,0.024-0.086,0.044-0.122,0.073c-0.124,0.092-0.233,0.204-0.362,0.279
			c-0.367,0.209-0.664,0.506-0.971,0.786c-0.24,0.216-0.477,0.435-0.715,0.653c-0.02,0.02-0.046,0.063-0.043,0.066
			c0.026,0.029,0.058,0.061,0.092,0.065c0.251,0.046,0.477,0.148,0.698,0.268c0.199,0.109,0.411,0.201,0.605,0.32
			c0.165,0.101,0.309,0.244,0.477,0.344c0.289,0.17,0.589,0.325,0.888,0.481c0.078,0.041,0.146,0.082,0.168,0.167
			c-0.003,0.013-0.013,0.027-0.02,0.039c-0.192-0.051-0.395-0.082-0.576-0.158c-0.329-0.138-0.652-0.286-0.961-0.457
			c-0.219-0.116-0.428-0.216-0.679-0.255c-0.185-0.032-0.354-0.139-0.535-0.204c-0.224-0.078-0.442-0.166-0.671-0.217
			c-0.318-0.07-0.601,0.065-0.87,0.214c-0.222,0.119-0.436,0.263-0.662,0.372c-0.338,0.161-0.705,0.192-1.064,0.261
			c-0.543,0.104-1.095,0.18-1.55,0.534c-0.175,0.139-0.35,0.282-0.508,0.44c-0.068,0.068-0.093,0.178-0.132,0.272
			c-0.221,0.532-0.221,1.095-0.248,1.658c-0.017,0.329,0.042,0.64,0.091,0.959c0.038,0.255,0.07,0.513,0.067,0.768
			c-0.007,0.582,0.057,1.15,0.144,1.725c0.046,0.304,0.029,0.627-0.002,0.937c-0.042,0.389-0.037,0.775,0.012,1.162
			c0.013,0.095,0.083,0.192,0.153,0.263c0.136,0.141,0.227,0.277,0.202,0.488c-0.022,0.205,0.029,0.399,0.199,0.543
			c0.268,0.229,0.532,0.457,0.8,0.688c0.024,0.022,0.039,0.062,0.061,0.091c-0.036,0.017-0.07,0.051-0.106,0.048
			c-0.168-0.015-0.302,0.078-0.45,0.134c-0.189,0.071-0.384,0.139-0.593,0.068c-0.122-0.041-0.243-0.075-0.37-0.09
			c-0.063-0.01-0.144,0.01-0.197,0.046c-0.221,0.161-0.467,0.181-0.697,0.034c-0.078-0.051-0.161-0.104-0.219-0.175
			c-0.222-0.261-0.645-0.246-0.876-0.041c-0.044,0.036-0.088,0.075-0.131,0.114c-0.181,0.16-0.455,0.211-0.662,0.097
			c-0.076-0.039-0.142-0.119-0.181-0.197c-0.124-0.25-0.312-0.301-0.533-0.129c-0.085,0.063-0.151,0.146-0.231,0.217
			c-0.205,0.175-0.453,0.238-0.709,0.287c-0.054,0.01-0.144-0.017-0.171-0.056c-0.033-0.052-0.026-0.134-0.017-0.202
			c0.005-0.041,0.046-0.083,0.078-0.117c0.29-0.281,0.494-0.625,0.716-0.958c0.056-0.085,0.112-0.17,0.173-0.25
			c0.158-0.207,0.161-0.462,0.225-0.698c0.083-0.279,0.144-0.564,0.243-0.834c0.114-0.313,0.098-0.62,0.022-0.932
			c-0.078-0.323-0.181-0.645-0.242-0.973c-0.065-0.367,0.015-0.722,0.208-1.046c0.054-0.095,0.109-0.189,0.181-0.271
			c0.177-0.2,0.177-0.45,0.206-0.688c0.054-0.467,0.078-0.941,0.003-1.413c-0.063-0.387-0.197-0.749-0.429-1.07
			c-0.041-0.056-0.083-0.119-0.142-0.153c-0.272-0.172-0.473-0.418-0.685-0.653c-0.263-0.3-0.606-0.465-0.957-0.625
			c-0.195-0.086-0.388-0.205-0.611-0.173c-0.234,0.034-0.461,0.095-0.689,0.148c-0.114,0.026-0.229,0.067-0.354,0.08
			c0.22-0.284,0.521-0.421,0.857-0.504c-0.012-0.026-0.017-0.038-0.023-0.043c-0.344-0.183-0.646-0.436-1.039-0.533
			c-0.237-0.061-0.459-0.196-0.685-0.297c-0.466-0.209-0.888-0.508-1.381-0.666c-0.186-0.059-0.358-0.183-0.512-0.307
			c-0.272-0.221-0.577-0.345-0.928-0.357c-0.506-0.017-1.02-0.07-1.519,0.057c-0.271,0.07-0.531,0.187-0.789,0.296
			c-0.157,0.068-0.299,0.168-0.447,0.248c-0.067,0.037-0.093,0.078-0.077,0.158c0.098,0.555-0.15,1.015-0.663,1.268
			c-0.427,0.211-0.872,0.291-1.34,0.263c-0.123-0.008-0.18-0.073-0.163-0.192c0.095-0.615,0.385-1.124,0.878-1.503
			c0.274-0.212,0.599-0.251,0.92-0.124c0.188,0.073,0.318,0.083,0.481-0.075c0.224-0.214,0.486-0.39,0.743-0.566
			c0.121-0.088,0.265-0.134,0.376-0.244c0.057-0.056,0.166-0.056,0.253-0.072c0.269-0.054,0.536-0.103,0.804-0.151
			c0.027-0.007,0.056-0.012,0.082-0.02c0.066-0.014,0.126-0.026,0.187,0.027c0.074,0.063,0.326,0.034,0.411-0.02
			c0.045-0.029,0.106-0.029,0.151-0.041c-0.194-0.321-0.425-0.625-0.757-0.826c-0.231-0.144-0.458-0.287-0.694-0.416
			c-0.066-0.039-0.166-0.022-0.242-0.049c-0.113-0.039-0.219-0.098-0.325-0.149c-0.062-0.027-0.117-0.069-0.182-0.082
			c-0.446-0.104-0.893-0.077-1.343-0.009c-0.151,0.023-0.309,0.028-0.463,0.04c-0.028-0.088,0.017-0.115,0.075-0.139
			c0.505-0.186,1.026-0.266,1.558-0.254c0.189,0.006,0.374,0.076,0.564,0.098c0.305,0.035,0.587,0.131,0.863,0.261
			c0.097,0.044,0.196,0.093,0.256,0.195c0.023,0.039,0.079,0.063,0.121,0.093c0.095,0.065,0.191,0.131,0.286,0.196
			c0.024,0.015,0.052,0.039,0.074,0.037c0.208-0.024,0.295,0.146,0.415,0.258c0.086,0.077,0.154,0.178,0.236,0.263
			c0.071,0.07,0.15,0.136,0.229,0.198c0.033,0.029,0.072,0.049,0.109,0.073c0.011-0.007,0.018-0.015,0.026-0.02
			c-0.012-0.083-0.015-0.17-0.039-0.247c-0.06-0.192-0.01-0.367,0.052-0.543c0.051-0.146,0.08-0.289,0.057-0.447
			c-0.015-0.083,0.006-0.175,0.03-0.257c0.056-0.199,0.046-0.391-0.071-0.562c-0.204-0.293-0.412-0.582-0.618-0.87
			c-0.017,0.009-0.029,0.014-0.027,0.015c0.035,0.232-0.126,0.421-0.143,0.641c-0.005,0.097-0.128,0.148-0.223,0.123
			c-0.026-0.008-0.063-0.005-0.09,0.006c-0.316,0.147-0.641,0.177-0.977,0.091c-0.05-0.014-0.099-0.027-0.148-0.037
			c-0.153-0.031-0.188-0.106-0.119-0.25c0.122-0.258,0.308-0.46,0.524-0.635c0.138-0.112,0.293-0.198,0.478-0.224
			c0.213-0.03,0.4,0.029,0.569,0.163c0.035,0.03,0.075,0.052,0.136,0.065c-0.039-0.172-0.065-0.347-0.121-0.512
			c-0.024-0.067-0.106-0.123-0.176-0.162c-0.115-0.062-0.241-0.1-0.358-0.159c-0.165-0.086-0.339-0.139-0.527-0.146
			c-0.183-0.006-0.363-0.035-0.542-0.046c-0.142-0.01-0.282-0.006-0.424-0.01c-0.131-0.004-0.26-0.005-0.39-0.013
			c-0.029-0.003-0.057-0.031-0.087-0.047c0.025-0.021,0.05-0.056,0.078-0.06c0.247-0.041,0.493-0.105,0.739-0.104
			c0.345,0.001,0.687,0.046,1.028,0.088c0.132,0.016,0.256,0.077,0.387,0.11c0.055,0.014,0.128,0.025,0.17,0.001
			c0.028-0.016,0.023-0.101,0.02-0.154c-0.026-0.308-0.119-0.597-0.249-0.875c-0.021-0.052-0.028-0.109-0.042-0.163
			c0.011-0.008,0.021-0.016,0.028-0.023c0.027,0.021,0.06,0.034,0.081,0.06c0.181,0.237,0.295,0.504,0.375,0.791
			c0.108,0.394,0.227,0.786,0.342,1.178c0.072,0.231,0.226,0.412,0.38,0.59c0.096,0.109,0.196,0.214,0.291,0.322
			c0.206,0.234,0.279,0.513,0.277,0.817c-0.002,0.156,0.015,0.312,0.012,0.47c-0.004,0.206-0.022,0.416-0.031,0.627
			c-0.002,0.042,0.009,0.085,0.014,0.127c0.021,0.213,0.04,0.425,0.063,0.637c0.015,0.119,0.074,0.216,0.173,0.289
			c0.322,0.243,0.628,0.508,0.999,0.679c0.311,0.141,0.626,0.27,0.943,0.392c0.333,0.131,0.672,0.243,0.984,0.433
			c0.39,0.235,0.811,0.401,1.254,0.518C-232.595,144.14-232.473,144.203-232.326,144.261z"/>
		<path fill-rule="evenodd" clip-rule="evenodd" fill="#FFFFFF" d="M-236.431,130.423c-0.492,0.02-0.804-0.233-1.04-0.709
			c-0.159-0.318-0.223-0.658-0.244-1.007c-0.009-0.125,0.011-0.253,0.028-0.378c0.013-0.106,0.089-0.127,0.185-0.112
			c0.262,0.041,0.502,0.138,0.734,0.267c0.288,0.164,0.55,0.362,0.734,0.646c0.146,0.228,0.234,0.476,0.153,0.753
			c-0.034,0.118-0.063,0.239-0.11,0.353c-0.069,0.162-0.133,0.193-0.304,0.188C-236.332,130.421-236.368,130.423-236.431,130.423z"
			/>
		<path fill-rule="evenodd" clip-rule="evenodd" fill="#FFFFFF" d="M-217.43,138.232c0.139,0.015,0.274,0.024,0.411,0.044
			c0.148,0.021,0.187,0.063,0.158,0.21c-0.129,0.651-0.46,1.157-1.088,1.425c-0.335,0.143-0.681,0.129-1.016-0.026
			c-0.132-0.063-0.158-0.112-0.148-0.259c0.031-0.448,0.23-0.804,0.596-1.064C-218.194,138.331-217.83,138.228-217.43,138.232z"/>
		<path fill-rule="evenodd" clip-rule="evenodd" fill="#FFFFFF" d="M-218.049,135.38c0.477-0.014,0.9,0.152,1.299,0.398
			c0.088,0.053,0.07,0.128,0.02,0.187c-0.124,0.144-0.246,0.289-0.384,0.412c-0.282,0.25-0.62,0.406-0.985,0.487
			c-0.341,0.075-0.649-0.002-0.907-0.247c-0.059-0.053-0.106-0.117-0.17-0.169c-0.104-0.082-0.112-0.177-0.065-0.298
			c0.17-0.446,0.454-0.747,0.994-0.77C-218.182,135.379-218.114,135.38-218.049,135.38z"/>
		<path fill-rule="evenodd" clip-rule="evenodd" fill="#FFFFFF" d="M-240.175,131.463c0.506,0.021,0.937,0.211,1.252,0.606
			c0.2,0.254,0.23,0.559,0.144,0.871c-0.012,0.042-0.026,0.083-0.037,0.124c-0.044,0.143-0.116,0.233-0.28,0.263
			c-0.215,0.04-0.42,0.06-0.633-0.013c-0.303-0.103-0.501-0.312-0.631-0.59c-0.17-0.348-0.213-0.714-0.164-1.095
			c0.021-0.143,0.056-0.175,0.198-0.167C-240.276,131.465-240.225,131.463-240.175,131.463z"/>
		<path fill-rule="evenodd" clip-rule="evenodd" fill="#FFFFFF" d="M-235.574,146.097c0.008-0.265,0.117-0.479,0.278-0.676
			c0.02-0.022,0.049-0.039,0.061-0.061c0.131-0.2,0.306-0.186,0.503-0.122c0.314,0.103,0.565,0.287,0.675,0.599
			c0.063,0.185,0.088,0.394,0.073,0.588c-0.026,0.348-0.134,0.677-0.351,0.958c-0.078,0.101-0.122,0.122-0.231,0.063
			c-0.437-0.233-0.793-0.537-0.946-1.031C-235.543,146.314-235.555,146.205-235.574,146.097z"/>
		<path fill-rule="evenodd" clip-rule="evenodd" fill="#FFFFFF" d="M-244.041,138.6c0.265-0.014,0.49,0.017,0.71,0.111
			c0.348,0.148,0.625,0.535,0.595,0.977c-0.005,0.084,0.011,0.207-0.036,0.243c-0.131,0.106-0.278,0.202-0.439,0.255
			c-0.468,0.151-0.854-0.02-1.176-0.36c-0.237-0.25-0.369-0.562-0.458-0.893c-0.03-0.108,0.022-0.181,0.15-0.223
			C-244.472,138.636-244.249,138.577-244.041,138.6z"/>
		<path fill-rule="evenodd" clip-rule="evenodd" fill="#FFFFFF" d="M-239.219,144.607c0.025-0.46,0.122-0.844,0.327-1.201
			c0.234-0.409,0.771-0.564,1.116-0.419c0.046,0.02,0.1,0.057,0.118,0.1c0.049,0.112,0.087,0.229,0.114,0.348
			c0.066,0.302-0.027,0.562-0.211,0.801c-0.225,0.292-0.518,0.483-0.851,0.622c-0.135,0.056-0.28,0.09-0.422,0.129
			c-0.073,0.022-0.121-0.012-0.135-0.087C-239.185,144.787-239.208,144.672-239.219,144.607z"/>
		<path fill-rule="evenodd" clip-rule="evenodd" fill="#FFFFFF" d="M-228.087,135.44c-0.003-0.392,0.173-0.706,0.418-0.991
			c0.085-0.094,0.183-0.178,0.277-0.263c0.112-0.102,0.189-0.096,0.284,0.021c0.324,0.409,0.484,0.863,0.385,1.391
			c-0.063,0.325-0.285,0.515-0.56,0.666c-0.175,0.097-0.307,0.068-0.455-0.067C-227.966,135.988-228.08,135.743-228.087,135.44z"/>
		<path fill-rule="evenodd" clip-rule="evenodd" fill="#FFFFFF" d="M-240.929,136.715c-0.025,0.094-0.063,0.256-0.111,0.412
			c-0.029,0.09-0.102,0.125-0.198,0.112c-0.273-0.034-0.5-0.152-0.7-0.343c-0.248-0.238-0.394-0.532-0.47-0.856
			c-0.067-0.293-0.05-0.597,0.001-0.897c0.019-0.092,0.102-0.108,0.174-0.075c0.188,0.086,0.38,0.168,0.552,0.278
			c0.205,0.133,0.366,0.312,0.506,0.517C-241.015,136.1-240.955,136.363-240.929,136.715z"/>
		<path fill-rule="evenodd" clip-rule="evenodd" fill="#FFFFFF" d="M-227.355,128.236c0.032,0.361-0.058,0.682-0.286,0.949
			c-0.098,0.112-0.229,0.194-0.351,0.286c-0.044,0.035-0.122,0.099-0.148,0.082c-0.07-0.036-0.126-0.105-0.178-0.171
			c-0.268-0.348-0.313-0.74-0.226-1.156c0.095-0.444,0.359-0.776,0.686-1.074c0.068-0.062,0.136-0.057,0.183,0.021
			c0.077,0.134,0.155,0.269,0.219,0.412C-227.37,127.794-227.328,128.014-227.355,128.236z"/>
		<path fill-rule="evenodd" clip-rule="evenodd" fill="#FFFFFF" d="M-220.339,133.371c-0.357-0.006-0.628-0.108-0.873-0.283
			c-0.176-0.127-0.197-0.245-0.057-0.411c0.295-0.353,0.688-0.499,1.136-0.494c0.38,0.004,0.728,0.126,1.046,0.33
			c0.031,0.018,0.061,0.042,0.09,0.065c0.056,0.044,0.056,0.09,0.008,0.146c-0.173,0.198-0.385,0.346-0.615,0.458
			C-219.852,133.3-220.118,133.358-220.339,133.371z"/>
		<path fill-rule="evenodd" clip-rule="evenodd" fill="#FFFFFF" d="M-235.367,141.678c-0.008-0.216,0.017-0.42,0.17-0.59
			c0.042-0.049,0.081-0.098,0.124-0.144c0.01-0.012,0.027-0.026,0.034-0.021c0.165,0.039,0.349-0.09,0.504,0.051
			c0.024,0.02,0.08,0.02,0.122,0.015c0.127-0.021,0.341,0.126,0.372,0.253c0.04,0.162,0.089,0.32,0.14,0.48
			c0.034,0.112-0.01,0.287-0.093,0.367c-0.037,0.032-0.068,0.083-0.078,0.132c-0.041,0.185-0.127,0.345-0.238,0.496
			c-0.056,0.08-0.13,0.095-0.21,0.046c-0.234-0.141-0.453-0.302-0.586-0.555c-0.019-0.034-0.049-0.072-0.084-0.092
			c-0.145-0.083-0.202-0.199-0.177-0.362C-235.364,141.73-235.367,141.703-235.367,141.678z"/>
		<path fill-rule="evenodd" clip-rule="evenodd" fill="#FFFFFF" d="M-219.041,146.304c-0.272-0.024-0.549-0.056-0.771-0.251
			c-0.183-0.155-0.27-0.359-0.299-0.588c-0.008-0.049,0.021-0.117,0.058-0.153c0.326-0.346,0.744-0.411,1.17-0.199
			c0.336,0.167,0.61,0.401,0.819,0.712c0.076,0.114,0.059,0.192-0.065,0.256C-218.413,146.221-218.717,146.282-219.041,146.304z"/>
		<path fill-rule="evenodd" clip-rule="evenodd" fill="#FFFFFF" d="M-225.071,130.385c-0.003-0.109,0.053-0.283,0.144-0.446
			c0.206-0.382,0.532-0.631,0.931-0.776c0.186-0.068,0.392-0.083,0.596-0.108c0.101-0.013,0.151,0.047,0.134,0.148
			c-0.048,0.311-0.141,0.61-0.338,0.86c-0.114,0.148-0.235,0.296-0.377,0.416c-0.211,0.182-0.474,0.264-0.751,0.274
			C-224.994,130.765-225.05,130.707-225.071,130.385z"/>
		<path fill-rule="evenodd" clip-rule="evenodd" fill="#FFFFFF" d="M-225.151,141.268c0.017-0.111,0.033-0.224,0.046-0.335
			c0.026-0.205,0.114-0.372,0.24-0.535c0.109-0.145,0.261-0.216,0.409-0.288c0.146-0.071,0.304-0.117,0.459-0.167
			c0.153-0.051,0.197-0.012,0.222,0.147c0.054,0.371,0.005,0.726-0.15,1.063c-0.124,0.277-0.321,0.493-0.608,0.607
			c-0.112,0.042-0.224,0.08-0.343,0.098c-0.124,0.02-0.183-0.029-0.212-0.151c-0.034-0.144-0.054-0.289-0.08-0.433
			C-225.161,141.271-225.154,141.271-225.151,141.268z"/>
		<path fill-rule="evenodd" clip-rule="evenodd" fill="#FFFFFF" d="M-220.58,140.003c0,0.044,0.005,0.087-0.002,0.13
			c-0.013,0.085-0.044,0.147-0.148,0.12c-0.027-0.007-0.063-0.008-0.086,0.005c-0.061,0.035-0.111,0.014-0.152-0.032
			c-0.044-0.05-0.088-0.058-0.153-0.044c-0.066,0.016-0.142,0.011-0.204-0.005c-0.238-0.061-0.473-0.133-0.679-0.281
			c-0.266-0.188-0.472-0.606-0.411-0.919c0.012-0.049,0.065-0.11,0.116-0.129c0.282-0.109,0.569-0.109,0.847,0.014
			c0.178,0.076,0.338,0.184,0.44,0.359c0.01,0.021,0.036,0.038,0.059,0.044c0.155,0.051,0.233,0.182,0.281,0.318
			c0.054,0.133,0.076,0.276,0.109,0.416C-220.57,140-220.575,140.002-220.58,140.003z"/>
		<path fill-rule="evenodd" clip-rule="evenodd" fill="#FFFFFF" d="M-235.776,130.093c0.04-0.646,0.482-1.117,1.034-1.334
			c0.091-0.032,0.181-0.058,0.272-0.083c0.104-0.029,0.137-0.002,0.161,0.098c0.063,0.268,0.018,0.53-0.058,0.783
			c-0.076,0.248-0.193,0.479-0.386,0.662c-0.214,0.204-0.464,0.329-0.767,0.335c-0.094,0.003-0.157-0.04-0.182-0.125
			C-235.731,130.32-235.75,130.206-235.776,130.093z"/>
		<path fill-rule="evenodd" clip-rule="evenodd" fill="#FFFFFF" d="M-218.885,140.454c0.292,0.003,0.552,0.098,0.792,0.256
			c0.268,0.177,0.465,0.415,0.608,0.697c0.051,0.1,0.034,0.15-0.075,0.191c-0.268,0.104-0.542,0.134-0.832,0.104
			c-0.297-0.031-0.564-0.124-0.795-0.313c-0.175-0.141-0.299-0.322-0.357-0.544c-0.027-0.104,0.005-0.183,0.097-0.241
			C-219.271,140.498-219.087,140.452-218.885,140.454z"/>
		<path fill-rule="evenodd" clip-rule="evenodd" fill="#FFFFFF" d="M-222.047,136.293c-0.038,0.389-0.09,0.699-0.304,0.956
			c-0.188,0.226-0.433,0.346-0.72,0.379c-0.021,0.003-0.059-0.015-0.068-0.033c-0.194-0.357-0.263-0.729-0.097-1.115
			c0.136-0.316,0.35-0.565,0.651-0.733c0.078-0.042,0.153-0.084,0.231-0.118c0.061-0.024,0.124-0.005,0.144,0.062
			C-222.146,135.911-222.088,136.135-222.047,136.293z"/>
		<path fill-rule="evenodd" clip-rule="evenodd" fill="#FFFFFF" d="M-221.04,136.15c0.01-0.492,0.207-0.825,0.543-1.071
			c0.16-0.119,0.353-0.195,0.537-0.279c0.122-0.058,0.18-0.014,0.212,0.114c0.114,0.474,0.026,0.912-0.258,1.301
			c-0.19,0.259-0.46,0.394-0.788,0.396c-0.093,0.001-0.148-0.06-0.173-0.141C-221.003,136.346-221.025,136.218-221.04,136.15z"/>
		<path fill-rule="evenodd" clip-rule="evenodd" fill="#FFFFFF" d="M-224.565,145.779c-0.01,0.382-0.098,0.739-0.302,1.065
			c-0.046,0.075-0.109,0.092-0.18,0.034c-0.28-0.243-0.47-0.545-0.587-0.897c-0.072-0.231-0.106-0.46-0.012-0.691
			c0.073-0.172,0.194-0.306,0.346-0.408c0.036-0.024,0.116-0.012,0.165,0.008C-224.741,145.051-224.573,145.363-224.565,145.779z"/>
		<path fill-rule="evenodd" clip-rule="evenodd" fill="#FFFFFF" d="M-222.625,132.44c0.002-0.497,0.144-0.826,0.431-1.094
			c0.067-0.062,0.134-0.124,0.201-0.183c0.068-0.055,0.139-0.051,0.186,0.026c0.104,0.174,0.211,0.346,0.229,0.558
			c0.015,0.156,0.062,0.317,0.051,0.473c-0.031,0.4-0.214,0.716-0.589,0.898c-0.111,0.054-0.175,0.033-0.255-0.063
			C-222.548,132.846-222.628,132.606-222.625,132.44z"/>
		<path fill-rule="evenodd" clip-rule="evenodd" fill="#FFFFFF" d="M-228.09,131.026c0.013-0.392,0.176-0.682,0.445-0.924
			c0.256-0.229,0.562-0.333,0.897-0.373c0.083-0.009,0.121,0.031,0.124,0.11c0.012,0.284-0.044,0.557-0.17,0.812
			c-0.117,0.233-0.277,0.431-0.511,0.562c-0.186,0.106-0.387,0.14-0.596,0.137c-0.096-0.003-0.151-0.053-0.168-0.144
			C-228.077,131.14-228.082,131.071-228.09,131.026z"/>
		<path fill-rule="evenodd" clip-rule="evenodd" fill="#FFFFFF" d="M-223.682,133.302c-0.02,0.365-0.183,0.744-0.592,0.987
			c-0.136,0.082-0.162,0.068-0.274-0.036c-0.343-0.327-0.333-0.992-0.114-1.34c0.131-0.205,0.318-0.337,0.516-0.461
			c0.036-0.022,0.129-0.014,0.16,0.018C-223.804,132.649-223.685,132.955-223.682,133.302z"/>
		<path fill-rule="evenodd" clip-rule="evenodd" fill="#FFFFFF" d="M-232.211,137.483c-0.034,0.11-0.066,0.246-0.112,0.378
			c-0.036,0.108-0.124,0.139-0.236,0.114c-0.487-0.109-0.828-0.599-0.864-1.062c-0.015-0.222,0.009-0.446,0.026-0.67
			c0.012-0.109,0.08-0.14,0.183-0.1c0.461,0.181,0.784,0.493,0.94,0.965C-232.237,137.217-232.235,137.335-232.211,137.483z"/>
		<path fill-rule="evenodd" clip-rule="evenodd" fill="#FFFFFF" d="M-230.58,133.133c0,0.004,0,0.009,0,0.012
			c-0.002,0.351-0.111,0.43-0.452,0.351c-0.421-0.098-0.701-0.358-0.867-0.736c-0.056-0.138-0.051-0.308-0.046-0.461
			c0.01-0.282,0.026-0.282,0.312-0.26c0.339,0.028,0.616,0.166,0.825,0.432C-230.66,132.664-230.58,132.885-230.58,133.133z"/>
		<path fill-rule="evenodd" clip-rule="evenodd" fill="#FFFFFF" d="M-241.99,138.829c-0.03,0-0.062-0.001-0.096,0
			c-0.181,0.003-0.247-0.061-0.189-0.229c0.164-0.516,0.45-0.93,1.008-1.072c0.172-0.043,0.339-0.032,0.506,0.03
			c0.118,0.043,0.14,0.103,0.124,0.229c-0.079,0.6-0.648,0.998-1.188,1.031C-241.88,138.822-241.933,138.823-241.99,138.829
			C-241.99,138.828-241.99,138.828-241.99,138.829z"/>
		<path fill-rule="evenodd" clip-rule="evenodd" fill="#FFFFFF" d="M-239.503,136.167c-0.406-0.024-0.71-0.173-0.961-0.44
			c-0.149-0.161-0.237-0.351-0.323-0.546c-0.049-0.111,0.006-0.176,0.159-0.206c0.292-0.057,0.574-0.015,0.842,0.095
			c0.241,0.099,0.458,0.243,0.577,0.489c0.049,0.101,0.084,0.209,0.11,0.317c0.032,0.121-0.026,0.204-0.146,0.235
			C-239.344,136.136-239.443,136.156-239.503,136.167z"/>
		<path fill-rule="evenodd" clip-rule="evenodd" fill="#FFFFFF" d="M-227.355,141.988c0.057,0,0.109,0,0.166,0
			c0.024,0,0.062,0,0.07,0.015c0.078,0.131,0.217,0.106,0.333,0.141c0.103,0.029,0.127,0.07,0.088,0.168
			c-0.139,0.351-0.36,0.645-0.713,0.798c-0.299,0.131-0.601,0.139-0.878-0.068c-0.031-0.024-0.061-0.083-0.056-0.117
			c0.039-0.201,0.109-0.389,0.274-0.529c0.052-0.044,0.073-0.124,0.122-0.173c0.056-0.059,0.124-0.119,0.196-0.151
			c0.127-0.048,0.261-0.072,0.392-0.106C-227.357,141.97-227.355,141.98-227.355,141.988z"/>
		<path fill-rule="evenodd" clip-rule="evenodd" fill="#FFFFFF" d="M-220.93,146.158c-0.021,0.112-0.051,0.29-0.095,0.465
			c-0.029,0.1-0.109,0.136-0.194,0.093c-0.436-0.207-0.746-0.514-0.824-1.007c-0.026-0.178-0.003-0.348,0.075-0.511
			c0.08-0.171,0.163-0.202,0.338-0.139C-221.144,145.232-220.976,145.616-220.93,146.158z"/>
		<path fill-rule="evenodd" clip-rule="evenodd" fill="#FFFFFF" d="M-237.134,131.839c-0.094-0.01-0.187-0.02-0.283-0.029
			c-0.086-0.01-0.114-0.055-0.095-0.142c0.053-0.247,0.183-0.452,0.353-0.628c0.202-0.208,0.444-0.359,0.74-0.404
			c0.181-0.028,0.341,0.024,0.498,0.085c0.082,0.03,0.074,0.124,0.058,0.2c-0.065,0.312-0.236,0.55-0.512,0.709
			C-236.609,131.765-236.862,131.837-237.134,131.839z"/>
		<path fill-rule="evenodd" clip-rule="evenodd" fill="#FFFFFF" d="M-240.304,144.042c-0.026,0.15-0.054,0.304-0.085,0.455
			c-0.019,0.102-0.096,0.109-0.165,0.067c-0.157-0.097-0.32-0.189-0.452-0.313c-0.304-0.279-0.461-0.63-0.396-1.053
			c0.014-0.09,0.049-0.18,0.085-0.268c0.039-0.085,0.145-0.119,0.254-0.083c0.247,0.078,0.436,0.246,0.557,0.462
			C-240.346,143.595-240.329,143.726-240.304,144.042z"/>
		<path fill-rule="evenodd" clip-rule="evenodd" fill="#FFFFFF" d="M-226.428,141.227c0.029-0.243,0.059-0.472,0.09-0.703
			c0.013-0.077,0.062-0.1,0.132-0.085c0.104,0.022,0.201,0.051,0.25,0.175c0.024,0.066,0.085,0.127,0.142,0.173
			c0.253,0.197,0.408,0.46,0.42,0.775c0.005,0.199-0.048,0.398-0.097,0.596c-0.008,0.036-0.093,0.08-0.144,0.083
			c-0.251,0.005-0.571-0.217-0.649-0.455C-226.345,141.601-226.383,141.409-226.428,141.227z"/>
		<path fill-rule="evenodd" clip-rule="evenodd" fill="#FFFFFF" d="M-236.723,138.671c0.031-0.139,0.059-0.279,0.095-0.417
			c0.065-0.265,0.421-0.423,0.653-0.407c0.045,0.004,0.092,0.042,0.125,0.077c0.257,0.275,0.288,0.593,0.104,0.929
			c-0.137,0.244-0.331,0.428-0.569,0.571c-0.124,0.074-0.173,0.06-0.237-0.075c-0.1-0.212-0.168-0.432-0.141-0.671
			C-236.704,138.674-236.714,138.673-236.723,138.671z"/>
		<path fill-rule="evenodd" clip-rule="evenodd" fill="#FFFFFF" d="M-233.816,135.318c-0.003,0.301-0.112,0.561-0.316,0.773
			c-0.066,0.064-0.146,0.112-0.224,0.158c-0.025,0.014-0.074,0.01-0.101-0.006c-0.107-0.074-0.209-0.159-0.241-0.298
			c-0.034-0.14-0.088-0.284-0.093-0.428c-0.021-0.422,0.21-0.71,0.549-0.921c0.033-0.021,0.119-0.014,0.143,0.015
			C-233.916,134.811-233.797,135.039-233.816,135.318z"/>
		<path fill-rule="evenodd" clip-rule="evenodd" fill="#FFFFFF" d="M-224.395,131.827c-0.265-0.007-0.475-0.038-0.651-0.191
			c-0.081-0.068-0.088-0.133-0.034-0.218c0.168-0.253,0.408-0.396,0.697-0.459c0.231-0.053,0.47-0.049,0.703,0.002
			c0.127,0.026,0.248,0.075,0.367,0.125c0.088,0.035,0.098,0.103,0.034,0.176C-223.586,131.61-223.969,131.804-224.395,131.827z"/>
		<path fill-rule="evenodd" clip-rule="evenodd" fill="#FFFFFF" d="M-225.081,134.943c-0.357-0.023-0.628-0.102-0.808-0.327
			c-0.109-0.135-0.16-0.32-0.229-0.486c-0.024-0.062,0.015-0.108,0.075-0.137c0.258-0.124,0.525-0.161,0.803-0.062
			c0.289,0.105,0.516,0.273,0.637,0.566c0.07,0.165,0.052,0.256-0.114,0.324C-224.852,134.88-225.001,134.916-225.081,134.943z"/>
		<path fill-rule="evenodd" clip-rule="evenodd" fill="#FFFFFF" d="M-221.523,134.542c-0.287-0.01-0.576-0.095-0.79-0.362
			c-0.086-0.107-0.078-0.164,0.021-0.258c0.299-0.278,0.656-0.301,1.036-0.229c0.258,0.049,0.464,0.195,0.669,0.347
			c0.08,0.06,0.065,0.134-0.024,0.204C-220.872,134.444-221.171,134.511-221.523,134.542z"/>
		<path fill-rule="evenodd" clip-rule="evenodd" fill="#FFFFFF" d="M-219.444,137.674c-0.336-0.006-0.669-0.124-0.885-0.469
			c-0.052-0.08-0.037-0.137,0.028-0.188c0.188-0.139,0.382-0.223,0.63-0.229c0.416-0.01,0.742,0.155,1.034,0.426
			c0.141,0.13,0.124,0.194-0.047,0.279C-218.907,137.607-219.142,137.665-219.444,137.674z"/>
		<path fill-rule="evenodd" clip-rule="evenodd" fill="#FFFFFF" d="M-238.911,135.657c0.003-0.425,0.139-0.708,0.389-0.938
			c0.082-0.077,0.175-0.142,0.263-0.207c0.067-0.046,0.123-0.03,0.158,0.049c0.166,0.385,0.187,0.778-0.005,1.156
			c-0.099,0.197-0.264,0.345-0.482,0.417c-0.081,0.026-0.143,0-0.193-0.075C-238.882,135.91-238.918,135.749-238.911,135.657z"/>
		<path fill-rule="evenodd" clip-rule="evenodd" fill="#FFFFFF" d="M-229.283,132.782c-0.013,0.33-0.163,0.557-0.406,0.729
			c-0.161,0.112-0.338,0.179-0.54,0.167c-0.085-0.005-0.131-0.038-0.16-0.117c-0.059-0.159-0.047-0.318,0.005-0.471
			c0.131-0.397,0.401-0.646,0.819-0.718c0.168-0.029,0.214,0.002,0.243,0.174C-229.305,132.632-229.293,132.717-229.283,132.782z"/>
		<path fill-rule="evenodd" clip-rule="evenodd" fill="#FFFFFF" d="M-230.052,140.862c0.026-0.199,0.046-0.41,0.192-0.574
			c0.146-0.159,0.338-0.232,0.544-0.272c0.027-0.004,0.059-0.004,0.088-0.006c0.214-0.019,0.336,0.159,0.253,0.359
			c-0.021,0.059-0.034,0.126-0.039,0.189c-0.015,0.139-0.068,0.256-0.165,0.357c-0.057,0.056-0.1,0.124-0.142,0.192
			c-0.116,0.182-0.248,0.232-0.452,0.172c-0.031-0.007-0.063-0.005-0.097,0c-0.11,0.015-0.144-0.005-0.158-0.121
			C-230.04,141.064-230.045,140.967-230.052,140.862z"/>
		<path fill-rule="evenodd" clip-rule="evenodd" fill="#FFFFFF" d="M-228.666,137.341c-0.102-0.032-0.282-0.085-0.457-0.15
			c-0.093-0.034-0.1-0.123-0.061-0.203c0.163-0.338,0.416-0.568,0.798-0.62c0.214-0.028,0.398,0.048,0.557,0.192
			c0.092,0.086,0.063,0.184,0.021,0.28C-227.948,137.185-228.225,137.326-228.666,137.341z"/>
		<path fill-rule="evenodd" clip-rule="evenodd" fill="#FFFFFF" d="M-236.486,145.81c-0.107-0.02-0.212-0.041-0.32-0.061
			c-0.091-0.017-0.115-0.073-0.081-0.148c0.189-0.428,0.649-0.812,1.185-0.72c0.055,0.008,0.106,0.021,0.157,0.041
			c0.153,0.059,0.165,0.114,0.115,0.268C-235.578,145.645-236.082,145.815-236.486,145.81z"/>
		<path fill-rule="evenodd" clip-rule="evenodd" fill="#FFFFFF" d="M-220.629,143.843c0.199-0.015,0.395,0.024,0.581,0.104
			c0.104,0.049,0.119,0.124,0.044,0.214c-0.194,0.229-0.44,0.389-0.725,0.462c-0.248,0.061-0.506,0.044-0.729-0.114
			c-0.098-0.07-0.104-0.18-0.017-0.287c0.185-0.233,0.42-0.372,0.725-0.379C-220.711,143.843-220.673,143.843-220.629,143.843z"/>
		<path fill-rule="evenodd" clip-rule="evenodd" fill="#FFFFFF" d="M-229.818,138.651c0.491-0.007,0.87,0.313,0.941,0.802
			c0.023,0.166-0.068,0.371-0.329,0.315c-0.359-0.077-0.612-0.265-0.739-0.611c-0.041-0.119-0.067-0.243-0.095-0.366
			c-0.02-0.095,0.018-0.136,0.109-0.14C-229.891,138.65-229.855,138.651-229.818,138.651z"/>
		<path fill-rule="evenodd" clip-rule="evenodd" fill="#FFFFFF" d="M-242.086,140.546c0.019,0.403-0.262,0.765-0.679,0.933
			c-0.076,0.032-0.159,0.057-0.239,0.071c-0.071,0.012-0.126-0.022-0.129-0.107c-0.007-0.472,0.137-0.865,0.578-1.094
			c0.103-0.053,0.229-0.062,0.345-0.07c0.036-0.002,0.09,0.056,0.108,0.097C-242.081,140.424-242.093,140.488-242.086,140.546z"/>
		<path fill-rule="evenodd" clip-rule="evenodd" fill="#FFFFFF" d="M-239.884,134.432c-0.051,0-0.103,0.002-0.152-0.001
			c-0.115-0.008-0.163-0.067-0.119-0.173c0.174-0.444,0.471-0.743,0.968-0.796c0.062-0.007,0.131,0.003,0.193,0.015
			c0.164,0.034,0.22,0.124,0.172,0.285c-0.104,0.342-0.339,0.54-0.679,0.626c-0.121,0.031-0.252,0.049-0.378,0.073
			C-239.882,134.452-239.883,134.442-239.884,134.432z"/>
		<path fill-rule="evenodd" clip-rule="evenodd" fill="#FFFFFF" d="M-227.158,137.691c0.194,0.006,0.258,0.09,0.224,0.286
			c-0.082,0.469-0.525,0.762-0.902,0.817c-0.058,0.009-0.124,0.01-0.18,0.024c-0.098,0.024-0.148-0.021-0.129-0.104
			c0.046-0.174,0.09-0.352,0.173-0.508c0.136-0.261,0.362-0.421,0.642-0.5c0.029-0.007,0.062-0.014,0.085-0.017
			C-227.214,137.688-227.184,137.691-227.158,137.691z"/>
		<path fill-rule="evenodd" clip-rule="evenodd" fill="#FFFFFF" d="M-219.354,139.38c-0.017,0.25-0.068,0.476-0.258,0.648
			c-0.054,0.05-0.119,0.1-0.192,0.116c-0.048,0.013-0.139-0.014-0.162-0.052c-0.127-0.203-0.158-0.425-0.091-0.656
			c0.071-0.23,0.19-0.425,0.372-0.578c0.107-0.092,0.178-0.081,0.217,0.05C-219.42,139.065-219.39,139.224-219.354,139.38z"/>
	</g>
	<g>
		<path fill="#981F23" d="M-308.236,78.837l1.915,0.997c0.011,1.402-0.296,2.703-0.923,3.904c-0.812,1.559-1.888,2.575-3.229,3.049
			c-1.341,0.476-2.642,0.384-3.903-0.272c-1.261-0.655-2.078-1.7-2.45-3.132c-0.372-1.431-0.149-2.933,0.669-4.502
			c0.653-1.252,1.461-2.178,2.428-2.776l1.954,1.016c-1.152,0.753-1.977,1.604-2.472,2.555c-0.488,0.934-0.634,1.826-0.443,2.68
			c0.192,0.854,0.676,1.482,1.451,1.886c0.778,0.405,1.574,0.449,2.384,0.127c0.811-0.32,1.456-0.938,1.93-1.851
			c0.236-0.451,0.404-0.918,0.502-1.399C-308.323,80.639-308.262,79.878-308.236,78.837z"/>
		<path fill="#981F23" d="M-309.182,68.337l10.56,2.388l-1.583,2.125l-2.055-0.515l-2.647,3.553l1.126,1.762l-1.56,2.094
			l-5.547-9.117L-309.182,68.337z M-304.076,71.882l-4.043-1.012l2.217,3.463L-304.076,71.882z"/>
		<path fill="#981F23" d="M-298.515,62.002l-0.209-4.85l1.556-1.473l6.8,7.19l-1.791,1.692l-4.245-4.488l0.19,4.091l-0.269,0.254
			l-4.072-0.417l4.242,4.486l-1.79,1.694l-6.8-7.188l1.555-1.47L-298.515,62.002z"/>
		<path fill="#981F23" d="M-294.413,53.618l3.545-2.393c0.846-0.57,1.649-0.814,2.405-0.734c0.759,0.081,1.325,0.399,1.7,0.954
			c0.48,0.712,0.474,1.51-0.017,2.394c0.664-0.231,1.273-0.262,1.826-0.088c0.553,0.175,0.999,0.513,1.336,1.014
			c0.481,0.713,0.628,1.457,0.441,2.234c-0.189,0.777-0.759,1.486-1.709,2.128l-3.993,2.694L-294.413,53.618z M-291.355,53.742
			l1.184,1.756l1.069-0.72c0.328-0.223,0.529-0.48,0.6-0.772c0.069-0.293,0.018-0.566-0.152-0.82
			c-0.169-0.25-0.402-0.396-0.697-0.436c-0.295-0.042-0.606,0.05-0.936,0.272L-291.355,53.742z M-289.157,57l1.307,1.938
			l1.151-0.777c0.543-0.367,0.885-0.707,1.021-1.018c0.137-0.312,0.082-0.654-0.17-1.026c-0.193-0.285-0.459-0.434-0.797-0.448
			c-0.341-0.013-0.701,0.108-1.079,0.364L-289.157,57z"/>
		<path fill="#981F23" d="M-285.024,47.572l3.972-1.938c0.861-0.42,1.683-0.513,2.465-0.277c0.783,0.236,1.346,0.708,1.691,1.415
			c0.478,0.98,0.323,1.954-0.466,2.922c0.546-0.015,1.237,0.325,2.073,1.019c0.836,0.695,1.635,1.345,2.394,1.952l-2.431,1.186
			c-0.29-0.222-0.813-0.657-1.576-1.304c-0.763-0.648-1.329-1.026-1.699-1.133c-0.371-0.109-0.703-0.091-0.996,0.051l-0.637,0.311
			l1.762,3.609l-2.215,1.081L-285.024,47.572z M-282.013,48.122l0.987,2.025l1.171-0.572c0.373-0.184,0.626-0.415,0.76-0.698
			c0.131-0.282,0.118-0.587-0.04-0.915c-0.328-0.671-0.915-0.8-1.758-0.388L-282.013,48.122z"/>
		<path fill="#981F23" d="M-272.994,42.311l3.396,9.293l-2.316,0.846l-3.395-9.294L-272.994,42.311z"/>
		<path fill="#981F23" d="M-270.036,41.209l4.248-1.006c1.639-0.389,3.043-0.248,4.208,0.424c1.167,0.673,1.919,1.721,2.257,3.145
			c0.354,1.494,0.148,2.781-0.618,3.863c-0.765,1.081-2.044,1.835-3.836,2.259l-3.976,0.942L-270.036,41.209z M-267.219,42.405
			l1.446,6.1l1.563-0.371c1.016-0.241,1.727-0.704,2.132-1.39c0.405-0.686,0.5-1.486,0.283-2.4
			c-0.225-0.946-0.674-1.628-1.347-2.042c-0.672-0.416-1.52-0.502-2.54-0.26L-267.219,42.405z"/>
		<path fill="#981F23" d="M-247.948,38.583l0.14,2.156c-1.297-0.525-2.547-0.75-3.749-0.671c-1.159,0.076-2.033,0.426-2.622,1.051
			c-0.588,0.626-0.854,1.391-0.795,2.294c0.057,0.867,0.416,1.549,1.078,2.045c0.663,0.496,1.504,0.711,2.526,0.646
			c0.542-0.037,1.079-0.19,1.61-0.461l-0.075-1.151l-1.428,0.093l-0.118-1.81l3.895-0.253l0.263,4.036
			c-0.366,0.416-0.94,0.774-1.722,1.073c-0.783,0.299-1.565,0.476-2.347,0.527c-1.721,0.112-3.164-0.272-4.331-1.149
			c-1.167-0.877-1.797-2.049-1.894-3.514c-0.097-1.5,0.375-2.756,1.419-3.773c1.043-1.017,2.444-1.582,4.201-1.698
			C-250.445,37.93-249.129,38.116-247.948,38.583z"/>
		<path fill="#981F23" d="M-237.9,46.689l-0.152,1.807l-7.27-0.616l0.835-9.86l7.172,0.608l-0.155,1.807l-4.714-0.398l-0.175,2.068
			l4.495,0.38l-0.153,1.807l-4.495-0.382l-0.2,2.373L-237.9,46.689z"/>
		<path fill="#981F23" d="M-223.726,42.368l-0.514,1.864c-1.108-0.917-2.037-1.479-2.789-1.687c-0.428-0.118-0.788-0.14-1.082-0.065
			c-0.292,0.073-0.47,0.229-0.535,0.466c-0.051,0.182-0.007,0.379,0.132,0.594c0.136,0.214,0.52,0.547,1.154,1.001
			c0.635,0.455,1.134,0.851,1.496,1.191c0.362,0.339,0.64,0.754,0.836,1.244c0.195,0.49,0.207,1.044,0.037,1.663
			c-0.243,0.883-0.773,1.493-1.588,1.833c-0.814,0.338-1.773,0.356-2.87,0.055c-1.184-0.326-2.248-0.95-3.19-1.87l0.567-2.056
			c0.521,0.604,0.999,1.071,1.437,1.403c0.44,0.331,0.934,0.571,1.483,0.724c0.934,0.257,1.481,0.092,1.645-0.494
			c0.053-0.201,0.012-0.416-0.124-0.645c-0.139-0.229-0.528-0.569-1.173-1.021c-0.642-0.451-1.141-0.842-1.498-1.176
			c-0.354-0.333-0.627-0.745-0.819-1.233c-0.19-0.489-0.2-1.05-0.024-1.683c0.224-0.819,0.737-1.39,1.537-1.712
			c0.798-0.321,1.751-0.33,2.854-0.024C-225.733,41.022-224.723,41.564-223.726,42.368z"/>
		<path fill="#981F23" d="M-214.882,52.701l-0.863,1.981c-1.396,0.109-2.715-0.106-3.957-0.646
			c-1.612-0.701-2.702-1.703-3.271-3.007c-0.567-1.305-0.569-2.609-0.003-3.913c0.566-1.303,1.549-2.192,2.952-2.664
			c1.401-0.472,2.914-0.355,4.538,0.35c1.296,0.562,2.276,1.305,2.942,2.227l-0.878,2.021c-0.832-1.097-1.738-1.859-2.721-2.286
			c-0.968-0.419-1.868-0.503-2.707-0.253c-0.837,0.251-1.43,0.778-1.777,1.58c-0.351,0.806-0.338,1.601,0.039,2.388
			c0.377,0.787,1.038,1.385,1.981,1.795c0.467,0.203,0.946,0.337,1.433,0.401C-216.686,52.74-215.923,52.749-214.882,52.701z"/>
		<path fill="#981F23" d="M-201.015,53.266l-5.38,8.304l-2.069-1.34l2.177-3.358l-4.137-2.681l-2.177,3.358l-2.066-1.34l5.379-8.304
			l2.069,1.339l-2.162,3.335l4.137,2.681l2.162-3.335L-201.015,53.266z"/>
		<path fill="#981F23" d="M-194.277,58.925c1.232,1.151,1.88,2.455,1.947,3.912c0.066,1.455-0.362,2.677-1.283,3.664
			c-0.935,1-2.133,1.505-3.592,1.517c-1.459,0.014-2.795-0.547-4.006-1.679c-1.223-1.145-1.88-2.442-1.965-3.895
			c-0.085-1.449,0.343-2.677,1.287-3.685c0.924-0.99,2.115-1.498,3.574-1.525C-196.857,57.206-195.51,57.77-194.277,58.925z
			 M-199.807,64.838c0.684,0.639,1.423,0.95,2.221,0.935c0.795-0.014,1.5-0.351,2.118-1.01c0.617-0.662,0.907-1.39,0.868-2.184
			c-0.039-0.793-0.401-1.509-1.085-2.148c-0.686-0.642-1.428-0.957-2.223-0.945c-0.798,0.011-1.505,0.348-2.123,1.01
			c-0.617,0.658-0.904,1.386-0.865,2.183C-200.858,63.476-200.493,64.196-199.807,64.838z"/>
		<path fill="#981F23" d="M-184.931,69.41c1.002,1.354,1.405,2.754,1.208,4.198c-0.196,1.444-0.836,2.568-1.924,3.372
			c-1.102,0.816-2.368,1.097-3.808,0.845c-1.438-0.251-2.648-1.043-3.633-2.376c-1-1.346-1.411-2.741-1.23-4.183
			c0.177-1.442,0.819-2.574,1.928-3.394c1.09-0.806,2.352-1.092,3.791-0.856C-187.162,67.253-185.938,68.052-184.931,69.41z
			 M-191.439,74.228c0.557,0.752,1.228,1.191,2.014,1.32c0.785,0.13,1.542-0.074,2.267-0.61c0.727-0.54,1.145-1.204,1.25-1.992
			c0.102-0.788-0.124-1.558-0.682-2.309c-0.559-0.755-1.23-1.199-2.016-1.332c-0.785-0.132-1.542,0.072-2.271,0.612
			c-0.725,0.536-1.138,1.2-1.242,1.992C-192.227,72.699-191.999,73.472-191.439,74.228z"/>
		<path fill="#981F23" d="M-183.913,87.07l-1.609,0.835l-3.473-6.697l8.786-4.555l1.133,2.188l-7.174,3.719L-183.913,87.07z"/>
	</g>
	<g>
		<path fill="#231F20" d="M-276.047,181.986l-1.741,2.391l-0.433-0.08l-0.998-4.414l1.064,0.202l0.529,2.4l1.452-2.026l0.809,0.153
			l0.615,2.418l1.36-2.046l1.063,0.202l-2.53,3.745l-0.432-0.083L-276.047,181.986z"/>
		<path fill="#231F20" d="M-269.801,185.93l-0.273,0.698l-2.812-1.104l1.498-3.812l2.773,1.092l-0.274,0.698l-1.824-0.718
			l-0.313,0.8l1.737,0.684l-0.273,0.698l-1.739-0.684l-0.36,0.917L-269.801,185.93z"/>
		<path fill="#231F20" d="M-264.523,188.061l-0.253,0.707l-2.941-1.05l1.376-3.857l0.962,0.343l-1.125,3.152L-264.523,188.061z"/>
		<path fill="#231F20" d="M-260.812,188.975l-0.175,0.729l-2.938-0.703l0.953-3.982l2.897,0.692l-0.174,0.729l-1.905-0.454
			l-0.201,0.834l1.818,0.438l-0.175,0.728l-1.817-0.434l-0.229,0.958L-260.812,188.975z"/>
		<path fill="#231F20" d="M-257.041,186.14l1.3,4.292l-1.089-0.137l-0.235-0.846l-1.821-0.227l-0.404,0.766l-1.072-0.133
			l2.148-3.862L-257.041,186.14z M-257.274,188.703l-0.462-1.661l-0.794,1.506L-257.274,188.703z"/>
		<path fill="#231F20" d="M-254.886,186.346l1.827,0.059c0.398,0.012,0.716,0.136,0.957,0.372c0.241,0.238,0.356,0.521,0.347,0.847
			c-0.015,0.452-0.259,0.777-0.736,0.979c0.203,0.1,0.391,0.357,0.563,0.773c0.173,0.416,0.339,0.808,0.501,1.177l-1.119-0.034
			c-0.063-0.139-0.172-0.398-0.326-0.783c-0.154-0.384-0.29-0.632-0.404-0.743c-0.115-0.11-0.241-0.168-0.375-0.173l-0.293-0.01
			l-0.052,1.663l-1.02-0.031L-254.886,186.346z M-253.891,187.129l-0.029,0.932l0.54,0.017c0.171,0.005,0.309-0.031,0.411-0.109
			c0.103-0.078,0.158-0.192,0.163-0.343c0.01-0.307-0.18-0.47-0.569-0.479L-253.891,187.129z"/>
		<path fill="#231F20" d="M-246.788,186.378l0.054,4.095l-0.862,0.012l-2.294-2.595l0.034,2.624l-1.021,0.013l-0.054-4.096
			l0.937-0.012l2.219,2.476l-0.032-2.505L-246.788,186.378z"/>
		<path fill="#231F20" d="M-241.377,186.417l0.004,0.749l-1.483,0.008l0.016,3.346l-1.021,0.005l-0.016-3.346l-1.484,0.007
			l-0.003-0.751L-241.377,186.417z"/>
		<path fill="#231F20" d="M-239.101,186.196c0.695-0.056,1.275,0.106,1.742,0.488c0.466,0.385,0.722,0.854,0.769,1.411
			c0.047,0.563-0.129,1.072-0.531,1.526c-0.401,0.45-0.944,0.706-1.627,0.762c-0.691,0.059-1.272-0.1-1.741-0.477
			c-0.47-0.377-0.728-0.849-0.776-1.418c-0.047-0.56,0.128-1.065,0.524-1.522C-240.346,186.512-239.8,186.256-239.101,186.196z
			 M-238.821,189.537c0.386-0.031,0.688-0.173,0.903-0.423c0.217-0.248,0.31-0.557,0.277-0.929c-0.03-0.375-0.174-0.667-0.429-0.873
			c-0.255-0.209-0.575-0.297-0.961-0.266c-0.388,0.034-0.69,0.173-0.908,0.421s-0.311,0.56-0.278,0.934
			c0.031,0.372,0.175,0.662,0.431,0.871S-239.209,189.569-238.821,189.537z"/>
		<path fill="#231F20" d="M-231.836,185.243l0.189,0.775c-0.586-0.109-1.037-0.124-1.352-0.049
			c-0.178,0.044-0.313,0.109-0.404,0.194c-0.093,0.086-0.124,0.178-0.1,0.275c0.017,0.077,0.073,0.139,0.165,0.189
			c0.093,0.051,0.3,0.093,0.621,0.129c0.322,0.036,0.583,0.08,0.782,0.131c0.2,0.049,0.385,0.144,0.554,0.28
			c0.17,0.139,0.287,0.338,0.351,0.596c0.09,0.369,0.02,0.695-0.208,0.982c-0.226,0.287-0.569,0.486-1.027,0.599
			c-0.497,0.119-1.006,0.106-1.532-0.034l-0.209-0.858c0.309,0.114,0.577,0.185,0.804,0.216c0.224,0.034,0.453,0.02,0.682-0.036
			c0.39-0.093,0.556-0.263,0.494-0.509c-0.02-0.082-0.077-0.152-0.172-0.209c-0.099-0.053-0.308-0.097-0.632-0.131
			c-0.323-0.034-0.585-0.075-0.779-0.124c-0.197-0.049-0.377-0.144-0.546-0.282c-0.168-0.139-0.285-0.341-0.348-0.604
			c-0.083-0.343-0.013-0.651,0.212-0.929c0.224-0.277,0.567-0.472,1.03-0.583C-232.835,185.157-232.359,185.15-231.836,185.243z"/>
		<path fill="#231F20" d="M-227.241,186.906l0.256,0.705l-2.843,1.023l-1.39-3.852l2.805-1.012l0.256,0.708l-1.844,0.664
			l0.292,0.807l1.756-0.632l0.255,0.705l-1.758,0.632l0.336,0.93L-227.241,186.906z"/>
		<path fill="#231F20" d="M-227.749,183.425l1.678-0.725c0.365-0.157,0.705-0.18,1.026-0.067c0.318,0.111,0.542,0.318,0.671,0.617
			c0.181,0.414,0.098,0.814-0.248,1.199c0.227,0.005,0.506,0.158,0.839,0.462c0.334,0.302,0.649,0.586,0.954,0.852l-1.029,0.444
			c-0.114-0.097-0.323-0.287-0.625-0.568c-0.304-0.282-0.532-0.45-0.683-0.501c-0.151-0.052-0.29-0.052-0.411,0.002l-0.271,0.117
			l0.659,1.524l-0.937,0.406L-227.749,183.425z M-226.515,183.71l0.369,0.855l0.496-0.214c0.158-0.068,0.268-0.158,0.328-0.272
			c0.059-0.114,0.059-0.24,0-0.379c-0.121-0.284-0.362-0.348-0.72-0.194L-226.515,183.71z"/>
		<path fill="#231F20" d="M-220.363,180.702l-0.567,4.526l-0.423,0.131l-3.132-3.365l1.061-0.331l1.733,1.909l0.279-2.541
			L-220.363,180.702z"/>
		<path fill="#231F20" d="M-215.942,183.445l0.097,0.744l-2.993,0.39l-0.53-4.062l2.955-0.384l0.097,0.744l-1.942,0.253l0.111,0.851
			l1.854-0.24l0.095,0.744l-1.851,0.24l0.126,0.978L-215.942,183.445z"/>
	</g>
	<g>
		<path fill-rule="evenodd" clip-rule="evenodd" fill="#FFFFFF" d="M-264.885,111.743c0-0.663,0.001-1.264,0-1.863
			c-0.016-4.256-0.007-8.513-0.063-12.769c-0.013-1.062,0.436-1.75,1.27-2.285c0.943-0.604,1.994-0.957,3.063-1.25
			c1.32-0.363,2.665-0.62,4.027-0.775c0.798-0.091,1.597-0.173,2.396-0.258c0.037-0.005,0.072-0.001,0.122-0.001
			c0,0.393,0.003,0.775,0,1.155c-0.015,2.426-0.029,4.852-0.05,7.276c-0.018,2.448-0.035,4.896-0.054,7.345
			c-0.006,0.714-0.008,1.43-0.013,2.145c-0.002,0.282-0.016,0.302-0.286,0.25c-0.732-0.139-1.463-0.294-2.198-0.421
			c-1.309-0.22-2.623-0.318-3.951-0.217c-0.956,0.07-1.883,0.25-2.763,0.641C-263.926,110.957-264.41,111.28-264.885,111.743z"/>
		<path fill-rule="evenodd" clip-rule="evenodd" fill="#FFFFFF" d="M-265.773,111.826c-0.69-0.692-1.474-1.091-2.332-1.346
			c-0.67-0.198-1.362-0.282-2.058-0.3c-1.923-0.053-3.79,0.277-5.621,0.844c-0.065,0.018-0.131,0.036-0.196,0.051
			c-0.013,0.002-0.029-0.006-0.078-0.02c0-6.113,0-12.234,0-18.393c0.265,0.02,0.547,0.027,0.826,0.064
			c1.098,0.157,2.201,0.288,3.289,0.494c1.576,0.297,3.13,0.686,4.537,1.5c0.457,0.267,0.874,0.581,1.195,1.013
			c0.259,0.349,0.393,0.732,0.393,1.171c0,3.683-0.001,7.367,0.007,11.05c0,1.19,0.024,2.381,0.038,3.571
			C-265.772,111.604-265.773,111.684-265.773,111.826z"/>
		<path fill-rule="evenodd" clip-rule="evenodd" fill="#FFFFFF" d="M-276.771,93.575c0,6.092,0,12.193,0,18.289
			c0.659-0.186,1.294-0.375,1.937-0.54c1.208-0.312,2.444-0.491,3.691-0.507c1.388-0.018,2.745,0.17,3.974,0.873
			c0.342,0.197,0.641,0.469,0.963,0.699c0.088,0.06,0.197,0.111,0.298,0.116c0.323,0.012,0.646,0.006,0.969-0.007
			c0.084-0.002,0.181-0.041,0.238-0.095c0.816-0.79,1.818-1.195,2.906-1.419c1.167-0.241,2.344-0.243,3.526-0.147
			c1.115,0.091,2.212,0.275,3.299,0.543c0.476,0.119,0.951,0.241,1.448,0.369c0-6.06,0-12.122,0-18.228
			c0.452,0.021,0.881,0.021,1.302,0.068c0.272,0.032,0.294,0.289,0.322,0.507c0.017,0.118,0.006,0.241,0.006,0.36
			c0,5.778,0,11.559,0,17.336c0,0.417-0.131,0.783-0.423,1.083c-0.209,0.221-0.471,0.333-0.782,0.332
			c-3.354-0.016-6.707-0.028-10.058-0.049c-0.192-0.001-0.322,0.052-0.445,0.197c-0.701,0.829-1.606,0.907-2.585,0.68
			c-0.438-0.1-0.75-0.401-1.038-0.719c-0.104-0.116-0.218-0.158-0.374-0.158c-1.734,0.012-3.465,0.016-5.198,0.024
			c-1.424,0.007-2.848,0.016-4.271,0.022c-0.775,0.005-1.329-0.547-1.331-1.33c-0.003-2.162-0.001-4.324-0.001-6.487
			c0-3.7,0-7.398,0.002-11.099c0-0.134,0.016-0.269,0.05-0.399c0.042-0.175,0.164-0.303,0.343-0.31
			C-277.603,93.564-277.206,93.575-276.771,93.575z"/>
	</g>
	<g>
		<path fill="#FFFFFF" d="M-218.552,99.775h-9.209l-2.846-8.758l-2.85,8.758h-9.21l7.449,5.411l-2.845,8.757l7.455-5.412
			l7.448,5.412l-2.843-8.757L-218.552,99.775z M-241.278,100.207l10.672,3.208l-2.53-3.217l2.53-7.777v10.994l10.666-3.208h0.054
			l-6.625,4.814l2.529,7.788l-0.005-0.005l-6.619-9.389l-4.113,1.595l-6.612-4.803H-241.278z M-230.606,103.5v4.495l-6.63,4.812
			l0.005-0.021L-230.606,103.5z"/>
	</g>
	<g>
		<path fill="#231F20" d="M-253.01,196.358v4.979h-1.102v-4.979H-253.01z"/>
		<path fill="#231F20" d="M-250.619,201.402l1.149-1.868c-0.115,0.029-0.227,0.047-0.339,0.047c-0.372,0-0.691-0.153-0.958-0.46
			c-0.266-0.304-0.4-0.674-0.4-1.106c0-0.486,0.159-0.895,0.477-1.226c0.319-0.331,0.712-0.496,1.181-0.496
			c0.471,0,0.862,0.165,1.175,0.496s0.468,0.744,0.468,1.24c0,0.589-0.217,1.24-0.655,1.95l-0.878,1.423H-250.619z
			 M-249.531,198.732c0.158,0,0.292-0.071,0.396-0.212c0.105-0.139,0.158-0.318,0.158-0.535c0-0.233-0.048-0.421-0.148-0.555
			c-0.101-0.136-0.236-0.204-0.406-0.204c-0.166,0-0.302,0.07-0.409,0.212c-0.108,0.144-0.163,0.323-0.163,0.54
			c0,0.224,0.054,0.406,0.16,0.545C-249.837,198.661-249.699,198.732-249.531,198.732z"/>
		<path fill="#231F20" d="M-246.02,199.191v-0.875c0.207,0,0.372-0.061,0.498-0.175c0.124-0.119,0.187-0.256,0.187-0.419
			c0-0.165-0.066-0.304-0.199-0.413c-0.134-0.109-0.303-0.165-0.506-0.165c-0.278,0-0.584,0.082-0.913,0.243v-0.878
			c0.329-0.144,0.71-0.217,1.137-0.217c0.473,0,0.857,0.114,1.151,0.341c0.296,0.229,0.442,0.521,0.442,0.88
			c0,0.496-0.247,0.881-0.738,1.15c0.583,0.229,0.873,0.654,0.873,1.281c0,0.44-0.159,0.796-0.479,1.061
			c-0.321,0.265-0.751,0.396-1.292,0.396c-0.438,0-0.845-0.095-1.219-0.282v-0.966c0.375,0.263,0.727,0.396,1.052,0.396
			c0.23,0,0.419-0.062,0.563-0.185c0.145-0.121,0.217-0.279,0.217-0.477c0-0.194-0.069-0.357-0.207-0.489
			C-245.594,199.272-245.782,199.201-246.02,199.191z"/>
		<path fill="#231F20" d="M-240.926,196.358v4.979h-1.102v-4.979H-240.926z"/>
	</g>
</g>
</svg>
